<?xml version="1.0" encoding="UTF-8" standalone="no"?>
<!-- Created with Inkscape (http://www.inkscape.org/) -->

<svg
   width="170px"
   height="38px"
   viewBox="0 0 170 38"
   id="SVGRoot"
   version="1.1"
   enable-background="new"
   inkscape:version="1.3 (0e150ed6c4, 2023-07-21)"
   sodipodi:docname="hatlet-technologies.svg"
   xmlns:inkscape="http://www.inkscape.org/namespaces/inkscape"
   xmlns:sodipodi="http://sodipodi.sourceforge.net/DTD/sodipodi-0.dtd"
   xmlns="http://www.w3.org/2000/svg"
   xmlns:svg="http://www.w3.org/2000/svg">
  <defs
     id="defs4787">
    <clipPath
       clipPathUnits="userSpaceOnUse"
       id="patternClipPath">
      <rect
         y="0"
         x="0"
         height="38"
         width="170"
         id="clipPathRect"
         style="color:#000000;display:inline;overflow:visible;visibility:visible;opacity:1;fill:#ffff00;fill-opacity:1;fill-rule:nonzero;stroke:none;stroke-width:20;stroke-linecap:square;stroke-linejoin:miter;stroke-miterlimit:4;stroke-dasharray:none;stroke-dashoffset:1.09889996;stroke-opacity:1;marker:none;enable-background:accumulate" />
    </clipPath>
    <marker
       inkscape:stockid="Arrow2Mend"
       orient="auto"
       refY="0.0"
       refX="0.0"
       id="Arrow2Mend"
       style="overflow:visible;"
       inkscape:isstock="true">
      <path
         id="path19572"
         style="fill-rule:evenodd;stroke-width:0.625;stroke-linejoin:round;stroke:#000000;stroke-opacity:1;fill:#000000;fill-opacity:1"
         d="M 8.7185878,4.0337352 L -2.2072895,0.016013256 L 8.7185884,-4.0017078 C 6.9730900,-1.6296469 6.9831476,1.6157441 8.7185878,4.0337352 z "
         transform="scale(0.6) rotate(180) translate(0,0)" />
    </marker>
  </defs>
  <sodipodi:namedview
     id="base"
     pagecolor="#ffffff"
     bordercolor="#666666"
     borderopacity="1.0"
     inkscape:pageopacity="0"
     inkscape:pageshadow="2"
     inkscape:zoom="4"
     inkscape:cx="68.25"
     inkscape:cy="48.625"
     inkscape:document-units="px"
     inkscape:current-layer="SVGRoot"
     showgrid="false"
     inkscape:pagecheckerboard="true"
     inkscape:window-width="1920"
     inkscape:window-height="1164"
     inkscape:window-x="-11"
     inkscape:window-y="-11"
     inkscape:window-maximized="1"
     inkscape:blackoutopacity="0.0"
     showborder="true"
     inkscape:showpageshadow="true"
     borderlayer="false"
     inkscape:deskcolor="#d1d1d1" />
  <inkscape:_templateinfo
     id="_templateinfo10">
    <inkscape:_name
       id="_name12">Seamless Pattern</inkscape:_name>
    <inkscape:_shortdesc
       id="_shortdesc14">Seamless Pattern</inkscape:_shortdesc>
    <inkscape:_keywords
       id="_keywords16">Seamless Pattern</inkscape:_keywords>
  </inkscape:_templateinfo>
  <g
     id="g616"
     transform="matrix(0.50333333,0,0,0.38327331,9.5000004,-15.576238)"
     style="stroke-width:2.27676">
    <path
       style="fill:#d3bb5a;stroke-width:8.60505"
       d="m 28.632462,127.18646 v -3.92453 h 5.397905 5.397937 v 3.92453 3.92453 h -5.397937 -5.397905 z m 86.467228,-5.22294 c -0.0852,-5.83463 -0.21288,-6.91334 -0.84296,-7.12613 -0.40837,-0.13784 -4.94966,-0.25074 -10.09178,-0.25074 -9.036368,0 -9.349285,-0.0274 -9.349285,-0.82624 0,-0.45442 -0.223701,-0.82622 -0.497097,-0.82622 -0.273393,0 -0.384115,-0.16078 -0.246058,-0.35745 0.138048,-0.19663 0.267796,-6.47068 0.288332,-13.942403 l 0.03733,-13.584973 15.462878,-0.07489 15.46288,-0.07489 0.24923,0.901175 c 0.137,0.495634 0.19027,7.221736 0.1182,14.946841 l -0.13101,14.04569 h -4.92854 -4.92854 l -0.25153,7.02286 -0.25154,7.02286 z M 4.6938418,105.08514 v -6.609726 h 8.2142292 8.214237 v 6.609726 6.60974 H 12.908071 4.6938418 Z m 55.1152242,-1.44588 c -2.71e-4,-4.544182 0.0681,-6.459548 0.15238,-4.256326 0.08422,2.203186 0.08453,5.921156 9.11e-4,8.262166 -0.08379,2.341 -0.152747,0.53836 -0.153164,-4.00584 z m 2.14969,-2.44423 c 0,-4.047496 -0.15829,-5.59873 -0.58674,-5.75089 -0.322708,-0.114636 3.109676,-0.181753 7.627499,-0.149302 l 8.214228,0.05906 -7.158104,0.125622 -7.158123,0.125649 v 5.348901 5.34889 l 7.158123,0.12565 7.158104,0.12564 -7.627498,0.0917 -7.627489,0.0917 z M 164.45377,96.409869 c 0,-2.158507 0.0791,-3.041532 0.17574,-1.962257 0.0968,1.079234 0.0968,2.845269 0,3.924505 -0.0968,1.079266 -0.17574,0.196149 -0.17574,-1.962248 z M 128.0028,67.595538 c -0.10704,-0.170543 -0.0936,-2.029404 0.0296,-4.131085 l 0.22429,-3.821282 h 3.93236 3.93235 v 4.131112 4.131076 h -3.96206 c -2.17915,0 -4.04963,-0.139539 -4.15664,-0.309821 z"
       id="path7" />
    <path
       style="fill:#60acb3;stroke-width:8.60505"
       d="m 7.9795404,125.12094 v -5.16387 h 5.8673016 5.86731 v 4.89605 4.89608 l -3.872416,0.26529 c -2.129836,0.14591 -4.770126,0.26645 -5.8673211,0.26782 l -1.9948745,0.003 z m 87.9011736,4.05134 c 0.456696,-0.10477 1.090362,-0.0979 1.408155,0.0147 0.317781,0.11318 -0.05585,0.19882 -0.83036,0.19052 -0.774478,-0.007 -1.034492,-0.10105 -0.577795,-0.20562 z m -47.886153,-2.07516 c 0.709952,-0.0947 1.871672,-0.0947 2.581605,0 0.709962,0.0947 0.129089,0.17199 -1.290793,0.17199 -1.419892,0 -2.000752,-0.0773 -1.290812,-0.17199 z m -2.792994,-5.48763 c 0,-1.24965 0.08798,-1.76088 0.195532,-1.13603 0.107549,0.6248 0.107549,1.64724 0,2.2721 -0.10755,0.62481 -0.195532,0.11359 -0.195532,-1.13607 z M 257.85609,117.8915 c 0,-1.93126 0.0809,-2.72134 0.17965,-1.75568 0.0988,0.96562 0.0988,2.54576 0,3.51142 -0.099,0.96563 -0.17965,0.17563 -0.17965,-1.75574 z m -9.94696,2.06557 c 0,-0.56805 0.10647,-0.80039 0.23671,-0.5164 0.13028,0.28402 0.13028,0.74876 0,1.03279 -0.13028,0.284 -0.23671,0.0516 -0.23671,-0.51639 z m 23.86447,-2.2721 c 0,-1.79013 0.19822,-3.09832 0.46939,-3.09832 0.2711,0 0.46938,1.30819 0.46938,3.09832 0,1.79011 -0.19816,3.09833 -0.46938,3.09833 -0.2711,0 -0.46939,-1.30822 -0.46939,-3.09833 z m 13.72133,1.44624 c -0.43552,-0.61379 -0.43158,-0.8529 0.0171,-1.08022 0.31744,-0.16053 0.42053,-0.13979 0.22925,0.0461 -0.19155,0.18591 -0.10839,0.59203 0.18434,0.90245 0.29271,0.31041 0.4413,0.64437 0.33018,0.74217 -0.11112,0.0978 -0.4537,-0.17689 -0.76135,-0.61053 z m -240.9043,-0.51673 c 2.74e-4,-0.17053 3.961329,-0.27344 8.801847,-0.22886 8.802306,0.0809 7.762154,0.22763 -3.051878,0.43078 -3.162966,0.0593 -5.750449,-0.0314 -5.749969,-0.20174 z M 267.387,118.8211 c -0.11975,-0.17028 0.27027,-0.30983 0.86622,-0.30983 0.59609,0 0.98591,0.13953 0.86624,0.30983 -0.11974,0.17053 -0.50947,0.30984 -0.86624,0.30984 -0.35678,0 -0.74659,-0.13956 -0.86622,-0.30984 z m -21.86186,-0.75736 c 0.0222,-0.48126 0.1337,-0.57913 0.28356,-0.24959 0.13548,0.29823 0.11879,0.65453 -0.0371,0.7918 -0.15615,0.13741 -0.26693,-0.10668 -0.24643,-0.54221 z m 4.39424,0.20126 c -0.17491,-0.24903 0.0651,-0.76022 0.53333,-1.13606 0.79483,-0.63801 0.81139,-0.63658 0.24976,0.022 -0.33079,0.38767 -0.46516,0.89888 -0.29863,1.13605 0.16661,0.23714 0.1971,0.43121 0.0683,0.43121 -0.12919,0 -0.37776,-0.20369 -0.55263,-0.45275 z m -5.76536,-0.78657 c 0,-0.56803 0.1066,-0.8004 0.23675,-0.5164 0.13028,0.28403 0.13028,0.74877 0,1.03279 -0.13028,0.28399 -0.23675,0.0516 -0.23675,-0.51639 z m 3.75511,-0.41312 c 0,-0.56802 0.10647,-0.8004 0.23671,-0.51636 0.13028,0.28402 0.13028,0.74875 0,1.03275 -0.13028,0.28402 -0.23671,0.0516 -0.23671,-0.51639 z m -94.42042,0.25715 c 0,-0.0859 0.36965,-0.41111 0.82142,-0.72297 0.74449,-0.51385 0.76107,-0.49923 0.17712,0.15591 -0.6132,0.68812 -0.99864,0.90695 -0.99864,0.56697 z m 20.0662,-0.11762 c 0.32271,-0.1147 0.85076,-0.1147 1.17344,0 0.32272,0.11471 0.0587,0.20834 -0.58668,0.20834 -0.64545,0 -0.90946,-0.0938 -0.58676,-0.20834 z m 75.73535,-0.43054 c 0.34179,-0.50091 0.72245,-0.82179 0.84596,-0.71312 0.12371,0.10874 -0.15615,0.51854 -0.62141,0.91072 -0.80827,0.68134 -0.81829,0.67251 -0.22455,-0.19762 z m -56.95999,0.0172 c 0.32273,-0.11471 0.85075,-0.11471 1.17348,0 0.32269,0.1147 0.0587,0.20836 -0.58672,0.20836 -0.64542,0 -0.90943,-0.0938 -0.58676,-0.20836 z m 39.56003,0.0671 c 0,-0.22715 0.20485,-0.69197 0.45501,-1.03277 0.25031,-0.34082 0.45501,-0.43377 0.45501,-0.20664 0,0.22713 -0.20484,0.69195 -0.45501,1.03276 -0.25031,0.34082 -0.45501,0.43376 -0.45501,0.20665 z m 8.47162,-1.27378 c 0.0222,-0.48124 0.13397,-0.57911 0.28356,-0.2496 0.13548,0.29823 0.11892,0.65452 -0.0371,0.79181 -0.15598,0.13729 -0.26692,-0.10652 -0.24642,-0.54221 z m -45.53032,-0.41306 c 0.0222,-0.48124 0.1337,-0.57911 0.28361,-0.24957 0.13548,0.29823 0.11878,0.65452 -0.0371,0.79178 -0.15614,0.13742 -0.26694,-0.10667 -0.24642,-0.54221 z m 12.24106,-14.2178 c 0,-0.56803 0.10661,-0.80041 0.23674,-0.51639 0.13041,0.28403 0.13041,0.74876 0,1.03277 -0.13028,0.284 -0.23674,0.0517 -0.23674,-0.51638 z m 57.34103,-1.652441 c 0,-1.476842 0.0853,-2.08102 0.18933,-1.342597 0.10414,0.738433 0.10414,1.946778 0,2.685218 -0.10414,0.73844 -0.18933,0.13424 -0.18933,-1.342621 z m -67.59615,-0.619668 c 0.003,-1.363252 0.0905,-1.871134 0.19486,-1.128632 0.10455,0.742487 0.10236,1.857879 -0.007,2.478641 -0.10702,0.62076 -0.19266,0.0125 -0.18988,-1.350009 z m 91.32467,-0.516361 c -0.58388,-0.655229 -0.56727,-0.669851 0.17712,-0.155903 0.45177,0.311843 0.82142,0.637164 0.82142,0.722968 0,0.33997 -0.38544,0.12123 -0.99865,-0.566965 z m -80.97965,-4.647497 c 0,-1.931296 0.0809,-2.721366 0.17961,-1.755716 0.0989,0.965651 0.0989,2.545787 0,3.511418 -0.0985,0.965644 -0.17961,0.175647 -0.17961,-1.755702 z m 57.23513,1.032771 c 0.003,-1.136055 0.0948,-1.55177 0.20263,-0.923816 0.10784,0.627925 0.1051,1.557426 -0.007,2.06553 -0.11153,0.508093 -0.19959,-0.005 -0.19628,-1.141714 z M 16.429207,71.313341 16.428298,48.489076 h 17.132546 17.132529 v -3.92451 -3.924539 h 22.271631 22.271653 l 0.141445,5.990726 0.141459,5.990709 -12.086641,-3.23e-4 -12.086654,-3.21e-4 v 7.435963 7.435953 l -1.994884,0.04755 c -1.097186,0.02609 -2.311715,0.07274 -2.69896,0.103202 -0.599941,0.04727 -0.704083,1.262275 -0.704083,8.214334 v 8.158742 l -2.933644,1.79e-4 -2.933657,1.6e-4 V 74.515127 65.01364 H 50.693374 41.30568 v 11.567037 11.567041 h -7.510145 -7.510188 v 3.124738 3.124733 L 21.357571,94.267413 16.429796,94.137622 Z M 2.2295733,93.213343 c 1.3553456,-0.08343 3.573193,-0.08343 4.9285404,0 1.3553457,0.08343 0.2464246,0.151738 -2.4642719,0.151738 -2.7106947,0 -3.81961589,-0.06826 -2.4642685,-0.151738 z M 196.78098,91.865475 c 0,-0.795225 0.0968,-1.120552 0.21455,-0.722939 0.11796,0.397613 0.11796,1.048257 0,1.445888 -0.11797,0.397614 -0.21455,0.0722 -0.21455,-0.722949 z m 27.18953,0 c 0,-0.56802 0.1066,-0.8004 0.23672,-0.516375 0.13028,0.283996 0.13028,0.748748 0,1.032761 -0.13028,0.284016 -0.23672,0.05174 -0.23672,-0.516386 z m -108.86448,-15.369427 -0.10687,-8.553138 -3.16833,-0.144428 -3.16836,-0.144421 3.18307,-0.08097 c 2.22129,-0.05639 3.25265,0.07855 3.41332,0.447127 0.12668,0.290414 0.16807,4.240762 0.0922,8.778559 l -0.13817,8.250516 z M 2.2295733,83.711845 c 1.3553456,-0.08347 3.573193,-0.08347 4.9285404,0 1.3553457,0.08346 0.2464246,0.151749 -2.4642719,0.151749 -2.7106947,0 -3.81961589,-0.06827 -2.4642685,-0.151749 z m 92.2241947,-8.671428 -0.107482,-9.18255 -8.800956,-0.121977 -8.800969,-0.121991 8.815697,-0.09369 c 6.789345,-0.07194 8.868465,0.0276 9.045302,0.433019 0.126284,0.289626 0.168031,4.518824 0.09278,9.398236 l -0.136835,8.87162 z m 24.360392,4.965633 c -0.3162,-0.297831 -0.52927,-2.085747 -0.52927,-4.440694 v -3.941958 h 4.7097 4.70974 l -0.13316,4.373376 -0.13317,4.373386 -4.04722,0.06757 c -2.6483,0.04414 -4.23019,-0.104913 -4.57652,-0.431406 z m 72.81205,-3.226568 c 0,-0.572166 0.18487,-1.140847 0.4107,-1.263722 0.22592,-0.122948 0.41072,0.345282 0.41072,1.040322 0,0.695022 -0.18487,1.263703 -0.41072,1.263703 -0.22591,0 -0.4107,-0.468138 -0.4107,-1.040303 z m 16.85462,0.213953 c 0,-0.568019 0.1066,-0.800391 0.23672,-0.516378 0.13028,0.284007 0.13028,0.748749 0,1.032773 -0.13028,0.284023 -0.23672,0.05174 -0.23672,-0.516395 z m -35.67324,-0.4131 c 0,-0.56802 0.10647,-0.80039 0.23671,-0.516395 0.13028,0.284024 0.13028,0.748767 0,1.032789 -0.13028,0.283997 -0.23671,0.05175 -0.23671,-0.516394 z m 5.12618,-0.241039 c 0.0222,-0.48124 0.13397,-0.579136 0.28359,-0.249565 0.13548,0.298188 0.11879,0.654497 -0.0371,0.791778 -0.15615,0.137355 -0.26696,-0.106615 -0.24646,-0.542213 z m 112.1829,-0.413091 c 0.0222,-0.481266 0.1337,-0.579146 0.28358,-0.2496 0.13548,0.298213 0.11878,0.654523 -0.0372,0.791802 -0.15614,0.137341 -0.26696,-0.106863 -0.24642,-0.542202 z m -98.54899,-3.485883 c -0.0363,-1.416202 0.13783,-2.469768 0.40826,-2.469768 0.57627,0 0.63553,4.406316 0.0634,4.717487 -0.22452,0.122228 -0.43682,-0.889343 -0.4717,-2.247719 z m 22.07637,1.661309 c 0,-0.568012 0.1066,-0.800381 0.23671,-0.516395 0.13028,0.284014 0.13028,0.748767 0,1.032789 -0.13042,0.283996 -0.23671,0.05175 -0.23671,-0.516394 z m -5.2003,-3.545837 c 0.0222,-0.481264 0.13398,-0.579136 0.28358,-0.24961 0.13548,0.298223 0.11892,0.654534 -0.0371,0.791822 -0.15615,0.137341 -0.26694,-0.106864 -0.24644,-0.542212 z m -16.69789,-1.408195 c -0.15814,-0.225419 -0.0716,-0.73664 0.19265,-1.136057 0.41219,-0.622934 0.48255,-0.564651 0.4948,0.409855 0.0137,1.187968 -0.20209,1.41732 -0.68752,0.726202 z m 21.95192,-2.068822 c 0,-1.022442 0.0914,-1.440724 0.20345,-0.929495 0.11208,0.51122 0.11208,1.347769 0,1.858988 -0.11208,0.511221 -0.20345,0.09296 -0.20345,-0.929493 z m -5.11549,-3.098315 c 9.1e-4,-2.499295 0.0786,-3.468482 0.17184,-2.153716 0.0933,1.31473 0.0925,3.359621 -0.001,4.544175 -0.0946,1.184556 -0.17108,0.108804 -0.16986,-2.390459 z m -33.0325,1.703024 c 0,-0.08587 0.36966,-0.411099 0.82142,-0.722932 0.74447,-0.513857 0.76107,-0.499236 0.17714,0.155894 -0.61321,0.688133 -0.99862,0.906975 -0.99862,0.566966 z m 38.17796,-3.562012 c 0,-1.704077 0.0828,-2.4012 0.18404,-1.549158 0.10127,0.852035 0.10127,2.246281 0,3.098304 -0.10113,0.852046 -0.18404,0.154922 -0.18404,-1.549146 z m 76.38892,-2.719619 c 0.0222,-0.481257 0.1337,-0.579128 0.28358,-0.249592 0.13548,0.298216 0.11878,0.654523 -0.0372,0.791804 -0.15614,0.137354 -0.26696,-0.106864 -0.24642,-0.542212 z m -14.11859,-3.477018 c 0,-0.227127 0.22368,-0.413099 0.49707,-0.413099 0.27333,0 0.36655,0.185902 0.2071,0.413099 -0.1598,0.227136 -0.38328,0.413136 -0.49712,0.413136 -0.11386,0 -0.20705,-0.185903 -0.20705,-0.413136 z m -53.04048,-0.80183 c 0,-0.213704 0.20873,-0.502284 0.46403,-0.6411 0.26612,-0.144671 0.34475,0.02198 0.18463,0.388721 -0.31205,0.715666 -0.6485,0.846601 -0.6485,0.252379 z"
       id="path6" />
    <path
       style="fill:#7cc373;stroke-width:8.60505"
       d="m 61.959907,133.69292 c 0.02385,-3.35133 0.03338,-8.17678 0.02102,-10.72318 l -0.02217,-4.62985 -8.684146,-0.12093 c -6.437134,-0.0895 -8.684009,0.005 -8.683612,0.36652 9.1e-4,0.73041 -17.313988,0.76849 -17.57801,0.0385 -0.104676,-0.28934 -0.280245,-7.26491 -0.390161,-15.50125 L 26.422965,88.147481 h 7.441436 7.441433 v 11.773582 11.773617 h 9.387643 9.387675 v -8.30636 c 0,-7.404606 0.08064,-8.279175 0.742464,-8.055634 0.408367,0.13784 0.830813,0.250745 0.938784,0.250745 0.107946,0 0.196295,2.509641 0.196295,5.576979 v 5.57694 h 7.510154 7.510154 v 2.84361 c 0,2.47612 0.118799,2.87093 0.919343,3.05517 0.505634,0.11637 4.254848,0.17516 8.331582,0.1305 4.076714,-0.0446 7.676246,-0.005 7.998956,0.0872 0.681768,0.19567 0.766798,5.95606 0.277653,18.81013 l -0.309056,8.12203 H 78.05698 61.916495 Z m -46.109772,-3.70756 c 0.843648,-0.092 2.110986,-0.09 2.816312,0.005 0.705307,0.0942 0.01498,0.16957 -1.533909,0.16711 -1.548977,-0.003 -2.126049,-0.0795 -1.282403,-0.17126 z M 193.85578,99.026214 c 0,-1.514741 0.13549,-2.634771 0.30115,-2.489002 0.43075,0.379085 0.48119,5.243068 0.0545,5.243068 -0.19543,0 -0.35555,-1.23933 -0.35555,-2.754066 z M 17.962889,94.058033 c 0.456695,-0.10469 1.090364,-0.09785 1.408155,0.01467 0.317792,0.113139 -0.05585,0.198822 -0.830361,0.19053 -0.774476,-0.0074 -1.034491,-0.10096 -0.577794,-0.20565 z M 193.89286,92.175486 c -0.0194,-1.079231 0.13165,-1.962247 0.33806,-1.962247 0.20623,0 0.29662,0.697113 0.2007,1.549157 -0.26999,2.398289 -0.49798,2.573003 -0.53875,0.41309 z m -2.38401,-13.942421 c 0,-0.227118 0.22371,-0.413091 0.49709,-0.413091 0.27332,0 0.36656,0.185894 0.20708,0.413091 -0.1598,0.227133 -0.38326,0.413135 -0.49709,0.413135 -0.11386,0 -0.20708,-0.185903 -0.20708,-0.413135 z m 16.97198,-2.891751 c 0,-0.568011 0.1066,-0.800383 0.23672,-0.516394 0.13028,0.284031 0.13028,0.748774 0,1.032789 -0.13028,0.283995 -0.23672,0.05174 -0.23672,-0.516395 z m -16.73727,-0.413101 c 0.15981,-0.227117 0.38323,-0.413125 0.49706,-0.413125 0.11386,0 0.20707,0.185902 0.20707,0.413125 0,0.227125 -0.22369,0.413101 -0.49709,0.413101 -0.27332,0 -0.36654,-0.185894 -0.20707,-0.413101 z m 98.53169,-7.229417 c 0,-4.31697 0.0701,-6.026882 0.15465,-3.79978 0.0846,2.227076 0.0844,5.75916 0,7.849055 -0.0853,2.089883 -0.15415,0.267732 -0.15398,-4.049275 z m -81.75964,4.750767 c 0,-0.795235 0.0965,-1.120563 0.21456,-0.722958 0.11796,0.397639 0.11796,1.048285 0,1.44589 -0.11824,0.397612 -0.21456,0.0722 -0.21456,-0.722932 z m 5.18217,-0.826217 c 0,-1.022451 0.0914,-1.440724 0.20345,-0.929504 0.11208,0.511221 0.11208,1.347769 0,1.858997 -0.11208,0.511222 -0.20345,0.09294 -0.20345,-0.929493 z m -22.18893,-2.08993 c 0,-0.24054 0.21124,-0.322593 0.46939,-0.182239 0.25806,0.140525 0.46939,0.337275 0.46939,0.43747 0,0.100269 -0.21122,0.182238 -0.46939,0.182238 -0.25808,0 -0.46939,-0.196877 -0.46939,-0.437497 z m 16.97198,-0.38873 c 0,-0.568011 0.1066,-0.800392 0.23672,-0.516394 0.13028,0.284031 0.13028,0.748765 0,1.032789 -0.13028,0.283996 -0.23672,0.05174 -0.23672,-0.516395 z M 191.83792,66.14963 c -0.27663,-1.517263 -0.09,-3.962733 0.33061,-4.332947 0.15348,-0.135138 0.2791,1.086631 0.2791,2.714963 0,3.185962 -0.21815,3.76508 -0.60971,1.617984 z m -64.00443,-3.408136 c 0.001,-1.817666 0.0842,-2.509873 0.18338,-1.538227 0.0992,0.971654 0.0979,2.458838 -0.003,3.304876 -0.10088,0.846003 -0.18198,0.05102 -0.18029,-1.766649 z m 64.18181,-2.099946 c 0.0222,-0.481276 0.1337,-0.579148 0.28359,-0.249603 0.13548,0.298224 0.11879,0.654525 -0.0371,0.791804 -0.15615,0.137355 -0.26693,-0.10685 -0.24641,-0.542201 z m -0.50645,-5.542544 c 0,-0.227133 0.21124,-0.413135 0.46939,-0.413135 0.25806,0 0.46939,0.185903 0.46939,0.413135 0,0.227117 -0.21122,0.4131 -0.46939,0.4131 -0.25808,0 -0.46939,-0.185903 -0.46939,-0.4131 z"
       id="path5" />
    <path
       style="fill:#995b9d;stroke-width:8.60505"
       d="m 101.99815,129.15034 c 2.53048,-0.0746 6.54373,-0.0743 8.91832,3.2e-4 2.37457,0.0748 0.30418,0.13561 -4.60089,0.13534 -4.90507,-3.2e-4 -6.847917,-0.0615 -4.31743,-0.13618 z m -6.117436,-1.2174 c 0.456696,-0.10477 1.090362,-0.0979 1.408155,0.0147 0.317781,0.11318 -0.05585,0.19882 -0.83036,0.19052 -0.774478,-0.007 -1.034492,-0.10094 -0.577795,-0.20566 z m 54.059176,-10.2434 c 0.0222,-2.62643 0.17213,-3.30937 0.73252,-3.34465 0.38722,-0.0243 0.44837,0.0322 0.13589,0.12593 -0.35822,0.10736 -0.62895,1.34354 -0.7325,3.34466 l -0.1643,3.17443 z m 65.13373,0.30527 c -0.0762,-2.71672 -0.23841,-3.40816 -0.7996,-3.40816 -0.50674,0 -0.70409,0.45629 -0.70409,1.62806 0,0.89538 -0.1663,1.71856 -0.36985,1.82923 -0.20346,0.11083 -0.25615,-0.66845 -0.11728,-1.73133 l 0.25252,-1.9325 3.36181,-0.12246 c 1.84896,-0.0674 3.46625,0.0256 3.59398,0.20665 0.12782,0.18102 -0.90098,0.26588 -2.28602,0.18856 l -2.5182,-0.1405 -0.15882,3.44537 -0.1588,3.44539 z m 47.17592,0.20662 c 0.275,-3.96451 0.26586,-3.9494 2.3332,-3.91753 0.98616,0.0147 1.43195,0.10169 0.99072,0.19222 -0.65276,0.13397 -0.83195,0.7561 -0.96164,3.33919 l -0.15947,3.17455 -0.0947,-3.20159 c -0.0749,-2.53351 -0.24142,-3.20157 -0.7985,-3.20157 -0.56719,0 -0.70407,0.64259 -0.70407,3.30484 0,1.81768 -0.18298,3.30488 -0.40674,3.30488 -0.22371,0 -0.31325,-1.34776 -0.19902,-2.99505 z m -52.70438,-0.48322 c 0.0276,-2.53984 0.19238,-3.3093 0.73906,-3.43963 0.4974,-0.11845 0.53853,-0.0642 0.14,0.18542 -0.3221,0.20177 -0.6391,1.67716 -0.73903,3.4396 l -0.1749,3.08626 z m -52.66186,1.41272 c 0,-0.79522 0.0964,-1.12056 0.21456,-0.72294 0.1181,0.3976 0.1181,1.04825 0,1.44588 -0.11797,0.39762 -0.21456,0.0722 -0.21456,-0.72294 z m 88.64184,0.58524 c 0.0222,-0.48123 0.1337,-0.57916 0.28356,-0.24958 0.13548,0.29819 0.11879,0.6545 -0.0371,0.79176 -0.15615,0.13729 -0.26693,-0.10653 -0.24643,-0.54218 z m -34.73446,-1.65243 c 0.0222,-0.48126 0.1337,-0.57913 0.28357,-0.24959 0.13548,0.29823 0.11893,0.65453 -0.0372,0.7918 -0.15614,0.13741 -0.26695,-0.10668 -0.24644,-0.54221 z m -50.28276,-1.68826 c 0.14366,-1.08028 0.5196,-1.9756 0.85472,-2.03457 0.32915,-0.0578 0.38196,-0.01 0.11714,0.10476 -0.26471,0.11539 -0.48113,1.03105 -0.48113,2.03455 0,1.00352 -0.16799,1.82456 -0.3736,1.82456 -0.20541,0 -0.25835,-0.86815 -0.11715,-1.92924 z m 81.2992,1.10302 c 0,-0.56801 0.10647,-0.80041 0.2367,-0.51639 0.13028,0.284 0.13028,0.74876 0,1.03276 -0.13014,0.28401 -0.2367,0.0516 -0.2367,-0.51637 z m 41.42179,-0.10317 -0.89414,-0.92948 1.05612,0.78696 c 0.9925,0.73957 1.26979,1.07203 0.89417,1.07203 -0.089,0 -0.56435,-0.41828 -1.05615,-0.92951 z m -96.88328,0.36043 c 0,-0.0858 0.36963,-0.41111 0.82143,-0.72294 0.74448,-0.51387 0.76108,-0.49925 0.17714,0.1559 -0.61321,0.68814 -0.99866,0.90698 -0.99866,0.56696 z m -29.49711,-1.08337 c 0,-0.56803 0.10633,-0.8004 0.23672,-0.51637 0.13042,0.28398 0.13042,0.74872 0,1.03276 -0.13028,0.28402 -0.23672,0.0516 -0.23672,-0.51639 z m 83.5134,0.17223 c 0.0222,-0.48126 0.13397,-0.57914 0.28356,-0.2496 0.13548,0.29822 0.11892,0.65452 -0.0371,0.79181 -0.15598,0.13729 -0.26692,-0.10682 -0.24642,-0.54221 z m 43.92861,-0.0345 c -0.72375,-0.63699 -0.20345,-0.95982 1.44729,-0.89779 1.74561,0.0657 1.74748,0.0675 0.22591,0.23321 -0.84395,0.092 -1.41233,0.34108 -1.26311,0.55358 0.31305,0.44578 0.051,0.51667 -0.40994,0.1111 z m -119.59336,-0.6661 c 0.22646,-0.19934 1.01838,-0.29582 1.75977,-0.21445 1.24088,0.13618 1.20816,0.16493 -0.41176,0.36243 -1.00906,0.12302 -1.5841,0.0598 -1.34801,-0.14785 z m 72.1073,0.1154 -1.40817,-0.31539 1.26309,-0.0488 c 0.69473,-0.0269 1.39369,0.13713 1.55321,0.36422 0.1598,0.22714 0.22483,0.39112 0.145,0.36423 -0.0799,-0.0269 -0.7787,-0.19076 -1.55317,-0.36423 z m -50.1068,-0.27361 c 0.32269,-0.1147 0.85074,-0.1147 1.17347,0 0.32269,0.11471 0.0587,0.20834 -0.58676,0.20834 -0.64538,0 -0.9094,-0.0938 -0.58671,-0.20834 z m 5.8673,-0.0124 c 0.45178,-0.10391 1.19105,-0.10391 1.64285,0 0.45178,0.10392 0.0818,0.18883 -0.82143,0.18883 -0.90354,0 -1.27319,-0.0852 -0.82142,-0.18883 z m 12.204,0 c 0.45178,-0.10391 1.19105,-0.10391 1.64285,0 0.45179,0.10392 0.0818,0.18883 -0.82143,0.18883 -0.90357,0 -1.27321,-0.0852 -0.82142,-0.18883 z m 12.90805,0.0124 c 0.32272,-0.1147 0.85079,-0.1147 1.1735,0 0.32266,0.11471 0.0587,0.20834 -0.58675,0.20834 -0.64539,0 -0.90941,-0.0938 -0.58675,-0.20834 z m 31.00873,-0.01 c 0.33884,-0.11942 0.74365,-0.10476 0.89968,0.0327 0.15613,0.13727 -0.12125,0.23493 -0.61607,0.21687 -0.54682,-0.0195 -0.65806,-0.11762 -0.28361,-0.24959 z m 26.49093,-0.003 c 0.45177,-0.10391 1.19101,-0.10391 1.64279,0 0.45184,0.10392 0.0818,0.18883 -0.82139,0.18883 -0.90356,0 -1.27323,-0.0852 -0.8214,-0.18883 z m 4.48846,0.003 c 0.33883,-0.11942 0.74364,-0.10476 0.89963,0.0327 0.15615,0.13727 -0.12097,0.23493 -0.61604,0.21687 -0.5468,-0.0195 -0.65803,-0.11762 -0.28359,-0.24959 z m -122.54652,-1.42149 c 0.3184,-0.2823 0.69715,-0.40924 0.84167,-0.28203 0.14432,0.12717 -0.11618,0.35817 -0.57892,0.51332 -0.66896,0.22419 -0.72288,0.17662 -0.26277,-0.23129 z m 13.26796,0.0514 c -0.4231,-0.24057 -0.48096,-0.40302 -0.14499,-0.4068 0.30743,-0.003 0.68955,0.17956 0.84911,0.4068 0.36016,0.51286 0.19763,0.51286 -0.70408,0 z m 30.38481,-0.0514 c 0.31839,-0.2823 0.69715,-0.40924 0.84166,-0.28203 0.14449,0.12717 -0.11591,0.35817 -0.57893,0.51332 -0.66894,0.22419 -0.72287,0.17662 -0.26279,-0.23129 z m -35.89365,-0.24489 c 0.71349,-0.0949 1.76963,-0.0925 2.34693,0.005 0.57732,0.0981 -0.007,0.17565 -1.29728,0.17273 -1.29079,-0.003 -1.76315,-0.0833 -1.04965,-0.17834 z m 20.88117,0.005 c 0.58086,-0.0986 1.53137,-0.0986 2.11223,0 0.58085,0.0986 0.10565,0.17906 -1.05612,0.17906 -1.16173,0 -1.63698,-0.0806 -1.05611,-0.17906 z m 6.10198,0 c 0.58087,-0.0986 1.53139,-0.0986 2.11226,0 0.58084,0.0986 0.10564,0.17906 -1.05612,0.17906 -1.16174,0 -1.63698,-0.0806 -1.05614,-0.17906 z m 12.91455,-0.005 c 0.71347,-0.0949 1.76957,-0.0925 2.34688,0.005 0.57732,0.0981 -0.007,0.17565 -1.29724,0.17273 -1.29079,-0.003 -1.76314,-0.0833 -1.04964,-0.17834 z m 30.7382,0.005 c 0.58088,-0.0986 1.53137,-0.0986 2.11222,0 0.58089,0.0986 0.10579,0.17906 -1.0561,0.17906 -1.16172,0 -1.63698,-0.0806 -1.05612,-0.17906 z m 9.41704,0.01 c 0.33884,-0.11942 0.74369,-0.10477 0.89967,0.0327 0.15597,0.13743 -0.12097,0.23494 -0.61608,0.21688 -0.54681,-0.0195 -0.65804,-0.11788 -0.28359,-0.24959 z m 2.78695,-0.01 c 0.58089,-0.0986 1.53138,-0.0986 2.11226,0 0.58086,0.0986 0.10565,0.17906 -1.05613,0.17906 -1.16171,0 -1.63695,-0.0806 -1.05613,-0.17906 z m 25.37611,0.01 c 0.33884,-0.11942 0.74371,-0.10477 0.8997,0.0327 0.15597,0.13743 -0.12138,0.23494 -0.61608,0.21688 -0.54682,-0.0195 -0.65805,-0.11788 -0.28362,-0.24959 z m 3.49108,-0.0195 c 0.96811,-0.089 2.55226,-0.089 3.52037,0 0.9681,0.089 0.17605,0.16199 -1.76019,0.16199 -1.93621,0 -2.72831,-0.073 -1.76018,-0.16199 z m 7.74484,0.01 c 0.58087,-0.0986 1.5314,-0.0986 2.11221,0 0.58087,0.0986 0.10565,0.17907 -1.05611,0.17907 -1.16169,0 -1.63698,-0.0807 -1.0561,-0.17907 z M 261.01482,101.1262 c 0.022,-0.48124 0.13384,-0.57914 0.28361,-0.24957 0.13548,0.29819 0.11878,0.6545 -0.0371,0.79177 -0.15598,0.13728 -0.26692,-0.10653 -0.24644,-0.5422 z m -66.59815,-1.204901 c 0.008,-0.681635 0.11468,-0.910463 0.23369,-0.508524 0.11878,0.401937 0.11126,0.959625 -0.0171,1.239345 -0.12864,0.27966 -0.22591,-0.0493 -0.21649,-0.730821 z m -43.56039,-4.750993 c 0,-3.067337 0.074,-4.32215 0.16412,-2.788489 0.0905,1.533667 0.0905,4.043309 0,5.576974 -0.0903,1.533667 -0.16412,0.278845 -0.16412,-2.788485 z m 107.86607,3.511403 c 0.008,-0.681626 0.11468,-0.910451 0.23367,-0.508503 0.11906,0.401936 0.11126,0.959636 -0.0171,1.239333 -0.12863,0.279683 -0.22591,-0.04917 -0.21651,-0.73083 z m -64.36013,-0.860631 c 0.0222,-0.481249 0.13384,-0.579125 0.28357,-0.249575 0.13548,0.298215 0.11878,0.65452 -0.0371,0.791774 -0.15614,0.137354 -0.26696,-0.106559 -0.24644,-0.542199 z M 286.53156,97.0065 c -0.8749,-0.616934 -0.86915,-0.624556 0.14499,-0.191983 0.58085,0.247736 1.05608,0.536826 1.05608,0.642436 0,0.316133 -0.24336,0.224933 -1.20108,-0.450427 z m -42.41457,-0.424763 c 0.0222,-0.481236 0.1337,-0.579112 0.28356,-0.249563 0.13548,0.298216 0.11879,0.654521 -0.0371,0.791773 -0.15615,0.137355 -0.26693,-0.106559 -0.24643,-0.54221 z m 44.74459,-0.275376 -0.8942,-0.929499 1.05612,0.786951 c 0.58087,0.432833 1.05611,0.851106 1.05611,0.929499 0,0.330592 -0.37777,0.08654 -1.21803,-0.786951 z M 222.9576,95.194375 c 0,-0.213705 0.20873,-0.502285 0.46403,-0.641105 0.26612,-0.144662 0.34475,0.02202 0.18463,0.388719 -0.31205,0.715669 -0.6485,0.846631 -0.6485,0.252386 z m 21.59169,-0.20663 c 0,-0.327423 0.19157,-0.699456 0.42563,-0.826788 0.23422,-0.127352 0.31507,0.140523 0.17992,0.595265 -0.28665,0.964599 -0.6056,1.086533 -0.6056,0.231523 z m 2.34693,0.20663 c 0,-0.213705 0.20875,-0.502285 0.46401,-0.641105 0.26609,-0.144662 0.34475,0.02202 0.18432,0.388719 -0.31201,0.715669 -0.64847,0.846631 -0.64847,0.252386 z M 220.6107,94.781288 c 0,-0.213718 0.20873,-0.502337 0.464,-0.641143 0.26611,-0.144664 0.34478,0.02202 0.18461,0.388731 -0.31203,0.715682 -0.64848,0.846618 -0.64848,0.252412 z m 64.96515,-1.327669 -0.89415,-0.89017 1.29078,0.731122 c 1.33099,0.753864 1.58267,1.049208 0.89416,1.049208 -0.21813,0 -0.79901,-0.400568 -1.29079,-0.89016 z m -91.12284,-1.175366 c 0,-1.022441 0.0914,-1.440714 0.20345,-0.929492 0.11208,0.511219 0.11208,1.347767 0,1.858988 -0.11208,0.511226 -0.20345,0.09299 -0.20345,-0.929496 z m 57.84115,1.239325 c -0.1598,-0.227136 -0.0664,-0.413127 0.20706,-0.413127 0.2733,0 0.4971,0.185904 0.4971,0.413127 0,0.227133 -0.0931,0.413113 -0.20709,0.413113 -0.11386,0 -0.33752,-0.185905 -0.49705,-0.413113 z M 2.7341054e-7,88.560054 V 84.015851 H 4.6938418 9.387685 v 4.544203 4.544174 H 4.6938418 2.7341054e-7 Z M 107.13701,84.981564 c -0.72876,-0.258787 -0.86218,-17.076956 -0.13551,-17.076956 0.27013,0 0.50564,3.482264 0.58672,8.675673 0.0744,4.771623 0.1355,8.660848 0.1355,8.642663 0,-0.01706 -0.26401,-0.126854 -0.58672,-0.241282 z m 2.34691,-0.01219 c 0.4518,-0.103925 1.19106,-0.103925 1.64286,0 0.45177,0.103914 0.0821,0.188825 -0.82143,0.188825 -0.90357,0 -1.2732,-0.08489 -0.82143,-0.188825 z m 3.08034,0.0028 c 0.33884,-0.119305 0.74368,-0.104658 0.89965,0.0327 0.15598,0.137355 -0.12118,0.234935 -0.61606,0.216884 -0.5468,-0.01959 -0.65803,-0.117711 -0.28359,-0.249692 z M 65.908272,83.451869 c -0.135015,-0.309653 -0.18118,-3.976605 -0.102623,-8.148787 l 0.142876,-7.585799 1.642855,-0.128073 c 0.903557,-0.07051 2.329311,-0.01947 3.168342,0.111976 l 1.5255,0.240059 v 8.036894 8.036902 h -3.065731 c -2.154986,0 -3.138664,-0.167358 -3.311212,-0.563014 z M 100.91766,68.729843 c 0,-9.914605 0.1649,-15.285034 0.46939,-15.285034 0.30445,0 0.46939,5.370429 0.46939,15.285034 0,9.914615 -0.16497,15.285024 -0.46939,15.285024 -0.30447,0 -0.46939,-5.370409 -0.46939,-15.285024 z m 45.0609,-2.203242 c 0,-6.967771 0.15865,-12.668737 0.35205,-12.668808 0.39148,-1.51e-4 0.28868,24.773563 -0.10415,25.119381 -0.1363,0.120039 -0.2478,-5.48282 -0.2478,-12.450573 z M 166.1621,78.23134 c 0,-0.227145 0.21121,-0.41311 0.46937,-0.41311 0.25807,0 0.4694,0.185903 0.4694,0.41311 0,0.227116 -0.21121,0.413118 -0.4694,0.413118 -0.25807,0 -0.46937,-0.185903 -0.46937,-0.413118 z m 6.60845,-0.241039 c 0.0222,-0.48124 0.1337,-0.57912 0.28358,-0.249575 0.13548,0.298215 0.11878,0.654532 -0.0371,0.791776 -0.15615,0.137355 -0.26695,-0.106615 -0.24644,-0.542201 z m 40.32997,-9.236267 c 0,-5.439622 0.15848,-9.976284 0.35206,-10.081464 0.19375,-0.105136 0.35203,4.345486 0.35203,9.890371 0,5.544883 -0.15847,10.081542 -0.35203,10.081472 -0.19376,-9.9e-5 -0.35206,-4.450765 -0.35206,-9.890379 z m 17.10623,-2.503029 c 0,-6.929898 0.0645,-9.76486 0.14265,-6.299924 0.0786,3.464971 0.0786,9.134884 0,12.599828 -0.0784,3.464935 -0.14265,0.629976 -0.14265,-6.299904 z m 21.85272,0 c 0,-7.986771 0.16677,-12.393256 0.46936,-12.393256 0.30249,0 0.46941,4.406485 0.46941,12.393256 0,7.986752 -0.16696,12.393266 -0.46941,12.393266 -0.30248,0 -0.46936,-4.406514 -0.46936,-12.393266 z m -85.59381,6.340842 c -0.37141,-3.866731 -0.29698,-11.661067 0.15131,-15.842348 0.22177,-2.067776 0.35734,0.577261 0.40803,7.952349 0.042,6.077846 0.001,11.050634 -0.0899,11.050634 -0.0913,0 -0.30243,-1.422268 -0.46943,-3.160635 z m 11.46811,2.506551 c 0.0222,-0.481231 0.13397,-0.579138 0.28359,-0.249566 0.13548,0.298196 0.11879,0.654497 -0.0371,0.791777 -0.15615,0.137355 -0.26696,-0.106614 -0.24646,-0.542211 z m 1.63598,-5.663621 c 0.1763,-0.407417 0.43871,-0.636696 0.58323,-0.509514 0.14449,0.127104 2.8e-4,0.460525 -0.32047,0.740769 -0.4636,0.404948 -0.51752,0.357506 -0.26281,-0.231274 z m 12.04802,-2.357572 c 0,-0.795218 0.0965,-1.120537 0.21455,-0.722923 0.11824,0.397603 0.11824,1.048247 0,1.44588 -0.11796,0.397613 -0.21455,0.0722 -0.21455,-0.722957 z m -9.91887,-2.356574 c 0.34181,-0.500898 0.72247,-0.821784 0.84595,-0.713101 0.12371,0.108554 -0.15615,0.518494 -0.62141,0.910682 -0.80824,0.681343 -0.81826,0.672559 -0.22454,-0.197608 z m 9.84702,-1.189264 c 0.0222,-0.481266 0.1337,-0.579144 0.28357,-0.249601 0.13548,0.298214 0.11892,0.654534 -0.0372,0.791812 -0.15614,0.137341 -0.26695,-0.106864 -0.24643,-0.542211 z m -8.48599,-0.437423 c 0,-0.221755 0.3285,-0.763869 0.72997,-1.204903 0.68831,-0.756112 0.69807,-0.742931 0.17108,0.230789 -0.68426,1.264553 -0.90107,1.498899 -0.90107,0.974033 z m 8.44892,-4.003483 c 0,-2.3382 0.17991,-3.580287 0.51867,-3.580287 0.55342,0 0.35094,6.395211 -0.21842,6.896236 -0.1653,0.145401 -0.30033,-1.346813 -0.30033,-3.315949 z m -10.53095,0.01715 c 0.1763,-0.407424 0.43872,-0.636704 0.58325,-0.509494 0.14448,0.127103 2.6e-4,0.460524 -0.32049,0.740757 -0.46359,0.404959 -0.51751,0.357507 -0.26279,-0.231263 z m 40.10218,-0.585685 c 0,-0.237135 0.36965,-0.686508 0.82139,-0.998342 0.75984,-0.524445 0.76982,-0.504999 0.13288,0.259235 -0.37871,0.454421 -0.74837,0.903686 -0.82139,0.998357 -0.0732,0.09467 -0.13288,-0.02198 -0.13288,-0.25925 z m 55.38738,-3.399951 c 0,-0.213713 0.20872,-0.502294 0.46402,-0.641112 0.26608,-0.144659 0.34475,0.02198 0.18461,0.388732 -0.31204,0.715665 -0.64851,0.846591 -0.64851,0.25238 z m -84.95861,-0.849098 c 0,-0.227135 0.21124,-0.41311 0.46939,-0.41311 0.25806,0 0.46939,0.185904 0.46939,0.41311 0,0.227125 -0.21122,0.413091 -0.46939,0.413091 -0.25808,0 -0.46939,-0.185903 -0.46939,-0.413091 z m 31.44875,0 c 0,-0.227135 0.2237,-0.41311 0.4971,-0.41311 0.27331,0 0.36655,0.185904 0.20706,0.41311 -0.1598,0.227125 -0.38322,0.413091 -0.49706,0.413091 -0.11386,0 -0.20707,-0.185903 -0.20707,-0.413091 z M 102.91253,52.31943 c 0.96812,-0.089 2.55231,-0.089 3.52041,0 0.9681,0.08901 0.176,0.161999 -1.76021,0.161999 -1.9362,0 -2.7283,-0.07292 -1.7602,-0.161999 z"
       id="path4" />
    <path
       style="fill:#da5163;stroke-width:8.60505"
       d="m 94.815665,121.81606 v -7.22941 h 9.349285 c 5.14212,0 9.68341,0.11304 10.09178,0.25074 0.63649,0.21494 0.74246,1.24686 0.74246,7.22941 v 6.97864 H 104.90743 94.815665 Z m 2.473204,6.13219 c -0.317793,-0.11318 -0.951459,-0.11997 -1.408155,-0.0147 -0.456697,0.10477 -0.196702,0.19737 0.577795,0.20565 0.774487,0.007 1.148141,-0.0772 0.83036,-0.19052 z M 62.897516,100.95407 v -5.370439 h 7.040771 7.040757 v 5.370439 5.37038 H 69.938287 62.897516 Z M 94.815665,84.636263 c 0,-0.495732 0.704073,-0.619661 3.520386,-0.619661 h 3.520389 V 68.731585 c 0,-9.914612 -0.16497,-15.285042 -0.46939,-15.285042 -0.25815,0 -0.46939,-0.185902 -0.46939,-0.41309 0,-0.2386 1.48637,-0.413109 3.52039,-0.413109 h 3.52038 v 7.642491 c 0,6.517959 -0.10354,7.642524 -0.70408,7.642524 -0.60286,0 -0.70409,1.212544 -0.70409,8.434303 0,6.360914 0.14416,8.485525 0.58675,8.642662 0.32271,0.114663 -2.31759,0.222979 -5.8673,0.241039 -5.440488,0.02753 -6.454045,-0.06471 -6.454045,-0.587054 z M 72.285213,81.53795 v -2.478651 h 2.346926 2.346905 v 2.478651 2.478652 H 74.632139 72.285213 Z M 111.57002,63.510296 c -0.17924,-0.157754 -0.3259,-3.044329 -0.3259,-6.414613 v -6.12779 h 6.32774 c 7.52369,0 6.91456,-0.655713 6.71574,7.229426 l -0.13549,5.370412 -6.12813,0.114648 c -3.37046,0.06317 -6.27478,-0.01465 -6.45403,-0.172238 z"
       id="path3" />
    <path
       style="fill:#3d7d8d;stroke-width:8.60505"
       d="m 45.388176,126.77335 c -0.0839,-0.22714 -0.104183,-2.08621 -0.04498,-4.13107 l 0.107604,-3.71798 8.27052,-0.1129 8.270509,-0.11305 -0.133879,4.24394 -0.133893,4.24396 h -8.091654 c -4.97979,0 -8.150329,-0.15883 -8.244229,-0.41309 z m 106.223004,-6.79192 c 0,-0.66821 0.16717,-1.30585 0.37128,-1.4169 0.2043,-0.1111 0.28672,0.43566 0.18323,1.21495 -0.23036,1.73618 -0.55461,1.85428 -0.55461,0.202 z m 6.57137,-0.43748 c 0,-0.90885 0.16414,-1.65245 0.36446,-1.65245 0.2004,0 0.28386,0.7436 0.18544,1.65245 -0.0984,0.90882 -0.2625,1.65244 -0.36446,1.65244 -0.10208,0 -0.18544,-0.74362 -0.18544,-1.65244 z m 4.14283,-1.80288 c -0.0844,-1.94157 0.0171,-3.38105 0.22121,-3.19888 0.40247,0.35636 0.5488,6.18607 0.16379,6.52496 -0.12754,0.11208 -0.30079,-1.38448 -0.38494,-3.32608 z m 48.53713,2.216 c 0,-0.79526 0.0968,-1.12057 0.21456,-0.72294 0.11797,0.39761 0.11797,1.04826 0,1.44586 -0.11796,0.39763 -0.21456,0.0721 -0.21456,-0.72292 z m 35.12965,1.03275 c -0.23504,-0.91656 0.0498,-6.21639 0.34867,-6.4874 0.17631,-0.16004 0.26171,0.86253 0.18937,2.2721 -0.15249,2.97423 -0.38634,4.80685 -0.53806,4.21529 z m 20.14884,-1.44586 c 0,-0.90886 0.16397,-1.65246 0.36445,-1.65246 0.20042,0 0.28387,0.7436 0.18545,1.65246 -0.0984,0.90884 -0.26252,1.65243 -0.36443,1.65243 -0.10209,0 -0.18547,-0.74359 -0.18547,-1.65243 z m 3.88293,0 c 0,-1.02245 0.0914,-1.44071 0.20348,-0.92948 0.11208,0.51121 0.11208,1.34775 0,1.85898 -0.11208,0.51121 -0.20348,0.0929 -0.20348,-0.9295 z m 8.94069,-0.82623 c 0,-1.47686 0.0853,-2.08102 0.18931,-1.34258 0.10414,0.73842 0.10414,1.94676 0,2.68519 -0.10414,0.73843 -0.18931,0.13424 -0.18931,-1.34261 z m 3.17252,1.82458 c 0.0222,-0.48128 0.13371,-0.57913 0.28361,-0.24962 0.13548,0.29823 0.11879,0.65454 -0.0371,0.79181 -0.15614,0.13729 -0.26691,-0.1068 -0.24639,-0.54219 z m -97.51123,-3.06391 c 0,-1.70407 0.0828,-2.40118 0.18404,-1.54917 0.10126,0.85206 0.10126,2.24629 0,3.09832 -0.10114,0.85205 -0.18404,0.15492 -0.18404,-1.54915 z m 32.36395,0.61966 c 0.003,-1.13604 0.0948,-1.55176 0.20265,-0.92379 0.10783,0.62794 0.10523,1.55744 -0.007,2.06552 -0.11153,0.5081 -0.19956,-0.005 -0.19624,-1.1417 z m 40.3735,-0.20662 c 0,-1.24965 0.0879,-1.76089 0.1954,-1.13603 0.10757,0.62481 0.10757,1.64725 0,2.27207 -0.10756,0.62486 -0.1954,0.11359 -0.1954,-1.13604 z m -105.75218,-1.85902 c 0,-0.79519 0.0828,-1.44584 0.18322,-1.44584 0.10086,0 0.26973,0.65065 0.37514,1.44584 0.10537,0.79526 0.0222,1.4459 -0.18323,1.4459 -0.20623,0 -0.37513,-0.65064 -0.37513,-1.4459 z m 37.89398,-0.23956 c 0.16613,-0.55859 0.37876,-0.74585 0.49591,-0.43646 0.1129,0.29804 -0.0171,0.73829 -0.29068,0.97834 -0.34833,0.30655 -0.40941,0.14517 -0.20511,-0.54188 z m 54.61183,-0.62097 c 0.0222,-0.48123 0.1337,-0.57912 0.28356,-0.24957 0.13548,0.29821 0.11879,0.65452 -0.0371,0.79177 -0.15615,0.13729 -0.26693,-0.10652 -0.24643,-0.5422 z m 25.77908,-0.14786 c 0,-0.21368 0.20876,-0.50227 0.464,-0.64108 0.2661,-0.14467 0.34478,0.022 0.18461,0.38872 -0.312,0.71566 -0.64846,0.84663 -0.64846,0.25236 z M 164.93913,96.203227 c 8.9e-4,-3.180924 0.0742,-4.427615 0.1638,-2.77041 0.0894,1.657218 0.0887,4.2598 -10e-4,5.783546 -0.09,1.523697 -0.16297,0.167846 -0.16248,-3.013136 z m 22.53047,0 c 9.1e-4,-3.180924 0.0742,-4.427615 0.16379,-2.77041 0.0892,1.657218 0.0885,4.2598 -0.001,5.783546 -0.09,1.523697 -0.16297,0.167846 -0.16248,-3.013136 z m 2.02632,5.267143 c -0.45754,-0.74294 -0.37107,-5.060588 0.10154,-5.060588 0.30667,0 0.50343,1.049459 0.50343,2.685241 0,2.518877 -0.15115,3.112137 -0.6048,2.375347 z m 13.27817,-2.970661 c 0,-1.804268 0.21122,-3.395387 0.46937,-3.535811 0.29897,-0.162468 0.46939,1.028495 0.46939,3.280514 0,2.081778 -0.19292,3.535798 -0.46939,3.535798 -0.2736,0 -0.46937,-1.36891 -0.46937,-3.280501 z m 68.71668,-2.503015 c 0,-3.294563 0.0731,-4.642331 0.16198,-2.995052 0.0889,1.647292 0.0889,4.342825 0,5.990063 -0.089,1.647285 -0.16198,0.299521 -0.16198,-2.995011 z m 11.15276,4.957306 c 0,-0.56805 0.10647,-0.80041 0.23676,-0.51639 0.13028,0.28402 0.13028,0.74876 0,1.03276 -0.13042,0.28401 -0.23676,0.0517 -0.23676,-0.51637 z M 166.63147,98.062225 c 0,-0.908835 0.21122,-1.652443 0.4694,-1.652443 0.25807,0 0.46938,0.743608 0.46938,1.652443 0,0.908867 -0.21123,1.652452 -0.46938,1.652452 -0.25805,0 -0.4694,-0.743585 -0.4694,-1.652452 z m 94.43783,0.619645 c 0.008,-0.681626 0.11468,-0.910451 0.23367,-0.508501 0.11878,0.401922 0.11126,0.959625 -0.0171,1.239322 -0.12864,0.279683 -0.22592,-0.04917 -0.21649,-0.730821 z m 12.11244,-0.619645 c 0,-0.908835 0.21125,-1.652443 0.4694,-1.652443 0.25809,0 0.46939,0.743608 0.46939,1.652443 0,0.908867 -0.21122,1.652452 -0.46939,1.652452 -0.25807,0 -0.4694,-0.743585 -0.4694,-1.652452 z m 12.6734,-1.652443 c -0.42307,-0.240548 -0.48094,-0.402967 -0.14499,-0.406773 0.30747,-0.0024 0.68958,0.179553 0.84915,0.406773 0.36016,0.512892 0.19762,0.512892 -0.70409,0 z M 220.376,95.583569 c 0.15981,-0.227135 0.38325,-0.413115 0.49709,-0.413115 0.11386,0 0.20707,0.185905 0.20707,0.413115 0,0.22712 -0.2237,0.413125 -0.49708,0.413125 -0.27333,0 -0.36655,-0.185905 -0.20708,-0.413125 z m 56.65237,-0.619671 c 0.008,-0.681626 0.11468,-0.910465 0.23365,-0.508516 0.11878,0.401936 0.11125,0.959626 -0.0171,1.239328 -0.12864,0.279679 -0.22595,-0.04924 -0.2165,-0.730812 z m 10.00023,-0.206632 c -0.15981,-0.227134 -0.0664,-0.413125 0.20702,-0.413125 0.27337,0 0.49709,0.185892 0.49709,0.413125 0,0.227135 -0.0932,0.413101 -0.20704,0.413101 -0.11385,0 -0.33755,-0.185893 -0.49711,-0.413101 z m -3.77438,-0.853718 c -0.17022,-0.242253 -0.20874,-0.52918 -0.0857,-0.637475 0.12316,-0.10829 0.34881,0.09002 0.50167,0.440604 0.31738,0.727917 0.0469,0.855982 -0.41599,0.196871 z m 2.07167,-0.282339 c -0.58385,-0.655206 -0.56726,-0.669817 0.17713,-0.15589 0.45176,0.31183 0.82142,0.637152 0.82142,0.722931 0,0.340003 -0.38545,0.121229 -0.99863,-0.566965 z M 166.63147,93.104812 c 0,-0.454404 0.21122,-0.826191 0.4694,-0.826191 0.25807,0 0.46938,0.371787 0.46938,0.826191 0,0.454416 -0.21123,0.826226 -0.46938,0.826226 -0.25805,0 -0.4694,-0.37181 -0.4694,-0.826226 z m 22.61522,-0.826191 c -0.0137,-0.90886 0.17216,-1.652462 0.41407,-1.652462 0.24196,0 0.43994,0.743602 0.43994,1.652462 0,0.90881 -0.18629,1.652417 -0.41402,1.652417 -0.22786,0 -0.42574,-0.743607 -0.43999,-1.652417 z m 31.84777,1.445849 c 0,-0.227123 0.20485,-0.691935 0.45499,-1.032758 0.25032,-0.340816 0.45501,-0.43376 0.45501,-0.206636 0,0.227134 -0.20483,0.691962 -0.45501,1.032786 -0.25029,0.340814 -0.45499,0.433767 -0.45499,0.206633 z m 23.93862,0 c 0,-0.227123 0.20485,-0.691935 0.45499,-1.032758 0.25031,-0.340816 0.45502,-0.43376 0.45502,-0.206636 0,0.227134 -0.20486,0.691962 -0.45502,1.032786 -0.25032,0.340814 -0.45499,0.433767 -0.45499,0.206633 z m 28.14866,-0.388732 c 0,-0.327386 0.21125,-0.710165 0.4694,-0.85059 0.25809,-0.140514 0.46939,0.127588 0.46939,0.595293 0,0.467821 -0.21122,0.850597 -0.46939,0.850597 -0.25807,0 -0.4694,-0.267866 -0.4694,-0.5953 z m -97.07106,-1.67679 c 0.008,-0.681627 0.11468,-0.91046 0.23365,-0.508539 0.11893,0.401957 0.11126,0.959655 -0.0171,1.239326 -0.12864,0.279707 -0.22593,-0.04924 -0.21651,-0.730787 z m 26.66341,-0.619663 c 0,-0.227125 0.21122,-0.413126 0.46937,-0.413126 0.25807,0 0.46939,0.185902 0.46939,0.413126 0,0.227136 -0.21123,0.413101 -0.46939,0.413101 -0.25807,0 -0.46937,-0.185893 -0.46937,-0.413101 z M 107.48903,76.373906 V 67.90519 h 3.75509 3.75507 v 8.468716 8.468751 h -3.75507 -3.75509 z M 94.707297,74.82475 94.580985,65.633094 85.780029,65.520633 76.979073,65.408159 v 6.825397 6.825413 H 74.632146 72.28522 v -5.576958 c 0,-4.186437 -0.146306,-5.576848 -0.586741,-5.576509 -0.45321,3.22e-4 -0.55546,-1.738832 -0.449329,-7.64249 l 0.137365,-7.642982 11.127828,-0.0028 c 6.120317,-8.94e-4 12.817624,-0.118334 14.882915,-0.259967 l 3.755082,-0.257499 -0.12816,15.958108 -0.12817,15.9581 H 97.864826 94.83363 Z m 92.101103,1.878049 c -0.12522,-1.409589 -0.0577,-2.412103 0.15082,-2.227817 0.20845,0.184185 0.31101,1.337598 0.22815,2.562903 l -0.15082,2.227808 z m 81.36036,-0.122227 c 0,-1.476871 0.0853,-2.081039 0.18933,-1.342585 0.10401,0.738418 0.10401,1.94676 0,2.685187 -0.10414,0.738445 -0.18933,0.134183 -0.18933,-1.342602 z m 16.93653,-3.717977 c 0,-3.521762 0.0721,-4.962468 0.15997,-3.201574 0.0879,1.76086 0.0879,4.642298 0,6.403165 -0.0879,1.760893 -0.15997,0.32018 -0.15997,-3.201591 z M 146.65341,66.872526 c -2.5e-4,-6.134663 0.0653,-8.7019 0.14515,-5.704951 0.0801,2.996948 0.0805,8.016215 2.9e-4,11.153931 -0.0799,3.137714 -0.14532,0.685684 -0.14548,-5.44898 z m 19.50869,7.804576 c 0,-1.755344 0.0828,-3.114068 0.18405,-3.019414 0.39559,0.369695 0.58909,5.790337 0.214,5.99439 -0.21898,0.119054 -0.39817,-1.219612 -0.39817,-2.974976 z m 20.83812,-10.283227 c 9.1e-4,-3.180949 0.0742,-4.427646 0.16379,-2.77044 0.0892,1.657241 0.0885,4.259821 -10e-4,5.783538 -0.09,1.523732 -0.1633,0.167841 -0.16247,-3.013098 z m 98.07016,-2.891779 c 0.003,-1.590468 0.087,-2.19048 0.18848,-1.333379 0.10196,0.857092 0.0998,2.158382 -0.003,2.891759 -0.10373,0.73337 -0.18683,0.03227 -0.18489,-1.55838 z M 166.31614,56.544785 c 0.001,-1.590451 0.087,-2.190481 0.18848,-1.333372 0.10168,0.857085 0.0999,2.158374 -0.003,2.891762 -0.10373,0.733368 -0.18684,0.03227 -0.18461,-1.55839 z M 268.16876,56.33816 c 0,-1.47688 0.0853,-2.081048 0.18933,-1.34262 0.10401,0.738444 0.10401,1.946787 0,2.685214 -0.10414,0.738418 -0.18933,0.134182 -0.18933,-1.342594 z m -46.35443,0.705121 c 0.17633,-0.407416 0.43873,-0.636696 0.58326,-0.509514 0.14449,0.127103 2.6e-4,0.460525 -0.3205,0.740759 -0.46358,0.404959 -0.5175,0.357498 -0.26278,-0.23128 z m -44.59152,-2.478652 c 0.17632,-0.407416 0.43873,-0.636695 0.58327,-0.509513 0.14448,0.127104 2.7e-4,0.460525 -0.32052,0.74076 -0.46355,0.404958 -0.51747,0.357497 -0.26278,-0.231274 z"
       id="path2-0" />
    <path
       style="fill:#313536;stroke-width:8.60505"
       d="m 144.57041,118.09806 v -8.88184 h 74.16273 74.16277 v 8.88184 8.88184 h -74.16277 -74.16273 z m 7.51015,1.85901 c 0,-0.68163 0.21122,-1.23934 0.46938,-1.23934 0.25807,0 0.46939,0.15078 0.46939,0.3352 0,0.61611 1.90446,2.14346 2.67265,2.14346 0.66842,0 0.6778,-0.0859 0.0787,-0.72293 -1.74877,-1.86 -1.94623,-2.78204 -0.91465,-4.2713 1.16273,-1.67858 1.21027,-2.02864 0.27555,-2.02864 -0.38725,0 -0.70408,0.17638 -0.70408,0.39182 0,0.21542 -0.51355,0.87951 -1.14122,1.47557 l -1.14122,1.08376 -0.14964,-1.3723 c -0.11468,-1.05298 -0.368,-1.37228 -1.08836,-1.37228 -0.85192,0 -0.95139,0.31539 -1.0751,3.40813 -0.13617,3.40592 -0.13548,3.40816 1.0561,3.40816 1.01203,0 1.19245,-0.1876 1.19245,-1.23934 z m 6.57138,-0.20664 c 0,-0.79522 0.19489,-1.44587 0.43299,-1.44587 0.23812,0 0.67697,0.65065 0.97519,1.44587 0.42117,1.12321 0.79593,1.44589 1.67924,1.44589 0.997,0 1.13984,-0.19077 1.15959,-1.54917 l 0.0222,-1.54918 0.80143,1.4459 c 0.83608,1.50844 2.55519,2.12866 3.52772,1.27273 0.5766,-0.50747 1.67558,-3.9019 1.70706,-5.27271 0.0276,-1.15248 -0.81961,-1.37173 -5.02516,-1.3022 l -3.40305,0.0564 -0.007,1.9 c -0.007,1.85804 -0.0222,1.8772 -0.68393,0.86727 -0.37234,-0.56805 -0.89205,-1.45106 -1.15491,-1.96229 -0.26278,-0.51121 -0.79998,-0.92951 -1.19362,-0.92951 -0.5852,0 -0.7157,0.64023 -0.7157,3.51147 0,3.23599 0.0738,3.51141 0.93879,3.51141 0.75995,0 0.93877,-0.2754 0.93877,-1.44589 z m 6.45466,-1.75571 c -0.26362,-1.86081 -0.26945,-1.85242 1.19947,-1.68351 1.15693,0.13299 1.16154,0.14978 0.46211,1.68351 -0.38856,0.85205 -0.87203,1.54916 -1.07432,1.54916 -0.20235,0 -0.46658,-0.69711 -0.58726,-1.54916 z m 8.71552,2.42199 c -0.12754,-0.42876 -0.001,-0.90449 0.27863,-1.05714 0.49241,-0.26786 0.70403,0.24453 0.54531,1.32036 -0.0419,0.28401 0.26169,0.51637 0.67442,0.51637 0.80004,0 2.72661,-3.3417 3.27483,-5.68023 0.49578,-2.1147 -0.87015,-1.69807 -2.03161,0.61967 -0.54081,1.07924 -0.99017,1.72989 -0.99861,1.44587 -0.008,-0.28399 -0.52576,-0.51639 -1.14966,-0.51639 -0.62388,0 -1.22329,0.23227 -1.33202,0.51639 -0.10866,0.28402 -0.65083,-0.38317 -1.20464,-1.48263 -0.60901,-1.20897 -1.24199,-1.92328 -1.60164,-1.80735 -0.32704,0.1054 -0.51573,0.44728 -0.41929,0.75971 0.0965,0.31239 0.33711,1.1257 0.53484,1.80734 0.74717,2.57603 1.87317,4.33762 2.77254,4.33762 0.63971,0 0.82367,-0.21834 0.6569,-0.77959 z m 16.19895,-0.39051 c 0.0854,-0.52997 -0.21152,-1.32005 -0.65947,-1.75573 -0.77415,-0.75287 -0.77121,-0.83431 0.0598,-1.64254 1.38272,-1.34472 0.40919,-2.24792 -2.42293,-2.24792 h -2.29577 l -0.13671,3.42928 -0.13671,3.42928 2.71835,-0.1244 c 2.44111,-0.1118 2.73415,-0.22274 2.87339,-1.08793 z m -3.58608,-0.79213 c 0.087,-0.39765 0.57485,-0.72298 1.0841,-0.72298 0.50923,0 0.99713,0.32533 1.08411,0.72298 0.11837,0.54146 -0.15349,0.72292 -1.08411,0.72292 -0.93047,0 -1.20257,-0.18152 -1.0841,-0.72292 z m -0.0892,-2.37539 c 0,-0.34082 0.3427,-0.61967 0.76157,-0.61967 0.62373,0 0.65579,0.11221 0.17714,0.61967 -0.32139,0.34081 -0.66409,0.61965 -0.76156,0.61965 -0.0976,0 -0.17712,-0.27884 -0.17712,-0.61965 z m 8.91833,3.71797 c 0,-0.43279 -0.49547,-0.61966 -1.64286,-0.61966 -1.32992,0 -1.64285,-0.15737 -1.64285,-0.82623 0,-0.5508 0.31293,-0.8262 0.93877,-0.8262 1.35192,0 1.24991,-1.54226 -0.11742,-1.77402 -0.65377,-0.11082 -0.38554,-0.20054 0.70408,-0.23517 1.54754,-0.0494 1.76021,-0.18103 1.76021,-1.08902 0,-0.96394 -0.15631,-1.03281 -2.34694,-1.03281 h -2.34693 v 3.51145 3.51143 h 2.34693 c 1.77322,0 2.34694,-0.15152 2.34694,-0.61966 z m 5.55574,-1.75573 c 1.22773,-2.98686 1.41688,-4.31415 0.6477,-4.54488 -0.35485,-0.10625 -0.92664,0.48701 -1.39077,1.44353 l -0.78817,1.6243 -0.7642,-1.25409 c -0.82673,-1.35676 -2.09368,-2.25458 -2.57886,-1.82755 -0.1663,0.14639 0.37785,1.38929 1.20917,2.76209 0.90189,1.48922 1.41114,2.83395 1.26258,3.33398 -0.18158,0.61074 -0.0222,0.838 0.58858,0.838 0.59357,0 1.12206,-0.69208 1.81397,-2.37538 z m 7.44175,-0.30983 1.02824,-2.47864 0.0279,2.58196 c 0.0249,2.2983 0.13097,2.58188 0.96669,2.58188 0.75994,0 0.93878,-0.2754 0.93878,-1.44587 0,-0.79521 0.17187,-1.44586 0.3818,-1.44586 0.2098,0 0.67181,0.65065 1.02635,1.44586 0.63249,1.41869 0.69529,1.44587 3.33977,1.44587 2.9861,0 4.17037,-0.64594 4.17037,-2.27471 0,-0.53698 0.21122,-1.46537 0.46947,-2.06307 0.31701,-0.73386 0.31141,-1.34656 -0.0171,-1.88705 -0.4186,-0.68836 -0.97335,-0.79386 -3.96619,-0.75428 l -3.47952,0.0461 -0.141,1.91739 -0.14099,1.91738 -1.06786,-1.96226 c -1.10985,-2.03944 -1.80754,-2.43259 -2.30252,-1.29739 -0.26638,0.6111 -0.32408,0.6111 -0.71265,0 -0.30739,-0.48343 -1.11643,-0.66489 -2.96457,-0.66489 -3.38336,0 -3.8404,0.68701 -2.5881,3.89048 1.20602,3.08511 1.30989,3.20013 2.75659,3.05276 1.05463,-0.10722 1.40474,-0.50845 2.27469,-2.6056 z m -3.0424,0.61967 c -1.21102,-2.82923 -1.20367,-2.89175 0.33972,-2.89175 1.18515,0 1.43685,0.16442 1.42315,0.92949 -0.008,0.51122 -0.31007,1.39425 -0.6687,1.96226 l -0.65207,1.0328 z m 12.12022,-0.92948 c -0.0123,-1.66756 0.12152,-1.96229 0.89176,-1.96229 0.77839,0 0.85052,0.17029 0.51205,1.20887 -0.21675,0.66491 -0.61791,1.54791 -0.89171,1.96227 -0.40199,0.60836 -0.50054,0.37564 -0.5121,-1.20885 z m 14.52335,-0.10751 c 0.73796,-1.83661 1.22217,-2.58672 1.33057,-2.06115 0.3583,1.73694 1.58566,4.5429 2.11727,4.84044 0.88216,0.49372 2.68061,0.37271 2.86777,-0.19298 0.0939,-0.28399 0.53114,-1.59008 0.97151,-2.90236 1.10391,-3.28956 0.72957,-3.62026 -4.00793,-3.541 l -3.66166,0.0612 -0.66343,1.487 -0.66347,1.48699 -1.06254,-1.54915 c -0.9521,-1.38809 -2.378,-2.10734 -2.378,-1.19952 0,0.54444 1.46843,3.08297 2.23877,3.87026 0.40082,0.40959 0.59547,1.15867 0.46144,1.77568 -0.17878,0.82311 -0.0577,1.03805 0.52888,0.93963 0.46738,-0.0785 1.20793,-1.24085 1.92082,-3.01504 z m 4.06423,0.93389 c -0.61429,-2.01744 -0.36286,-2.78849 0.90925,-2.78849 1.03429,0 1.15847,0.13175 0.87608,0.92949 -0.59399,1.67819 -1.11591,2.78848 -1.31075,2.78848 -0.10524,0 -0.3189,-0.41827 -0.47458,-0.92948 z m 12.37752,1.08261 c 0,-1.27658 0.64775,-1.25041 1.32277,0.0534 0.3147,0.60789 0.92666,1.03278 1.48747,1.03278 0.83716,0 0.88646,-0.11304 0.40617,-0.9295 -1.28998,-2.19342 -1.31371,-2.34701 -0.54477,-3.52617 1.36117,-2.08734 0.65503,-2.62674 -3.25266,-2.48462 l -3.40872,0.12399 -0.28132,2.58851 c -0.15482,1.4237 -0.40468,2.69713 -0.55547,2.82985 -0.67985,0.59834 -1.17687,-0.45739 -1.47689,-3.13712 -0.23701,-2.11654 -0.50746,-2.90091 -1.00045,-2.90091 -0.76046,0 -0.83712,0.99768 -0.37543,4.88528 l 0.30021,2.52786 3.68953,-0.042 c 3.55552,-0.0406 3.68956,-0.0776 3.68956,-1.02139 z m 0,-3.18258 c 0,-0.38274 0.36483,-0.68571 0.82144,-0.68219 0.46878,0.003 0.6199,0.13856 0.35204,0.31462 -0.25805,0.16957 -0.62782,0.47655 -0.82145,0.68219 -0.19346,0.20568 -0.35203,0.0642 -0.35203,-0.31462 z m 18.30603,2.7403 c 0,-1.18884 0.12521,-1.41837 0.56324,-1.03278 0.73537,0.6472 2.11078,0.63541 2.41158,-0.0195 0.13028,-0.28403 0.25334,0.18075 0.27387,1.03275 l 0.0371,1.54916 h 2.11227 2.1122 v -3.51142 -3.51143 h -1.85557 c -1.75877,0 -1.90638,0.10094 -2.82845,1.93565 -0.94099,1.87222 -0.99535,1.90742 -1.65861,1.074 -0.37716,-0.47392 -0.89127,-1.3375 -1.14256,-1.91907 -0.39032,-0.90365 -0.71546,-1.04482 -2.23576,-0.97072 l -1.77898,0.0866 -0.13882,2.78849 -0.139,2.78849 h -1.62141 -1.62139 v -2.89175 c 0,-2.19635 -0.15715,-2.8918 -0.65385,-2.8918 -0.35964,0 -0.75723,0.23715 -0.88357,0.52683 -0.28924,0.66342 -0.31144,5.7694 -0.0276,6.1862 0.11645,0.17055 2.20566,0.30984 4.64297,0.30984 h 4.43143 z m 12.67336,-0.92144 c 0,-2.22613 0.0965,-2.46198 1.05611,-2.58194 0.68601,-0.0856 1.10965,-0.46429 1.20893,-1.08022 0.14882,-0.924 0.0647,-0.94511 -3.2857,-0.82622 -3.15919,0.11221 -3.45069,0.19761 -3.58847,1.05151 -0.12754,0.79069 0.0651,0.92949 1.29079,0.92949 h 1.44081 v 2.47865 c 0,2.20324 0.10415,2.47865 0.93879,2.47865 0.83322,0 0.93874,-0.27541 0.93874,-2.44992 z m 8.23071,2.01333 c 0.52018,-0.74075 -0.19236,-2.34528 -1.13825,-2.56297 -0.49354,-0.11359 -1.13697,-0.60055 -1.42979,-1.08214 -0.48813,-0.80267 -0.41382,-0.87558 0.8922,-0.87558 1.21485,0 1.42468,-0.15542 1.42468,-1.05541 0,-1.00137 -0.11413,-1.04897 -2.22958,-0.92951 -2.12297,0.11969 -2.23646,0.18834 -2.37338,1.42974 -0.11919,1.08095 0.14167,1.49537 1.5255,2.42439 0.91815,0.61635 1.6693,1.28444 1.6693,1.48466 0,0.20028 -0.84489,0.3641 -1.87754,0.3641 -1.35599,0 -1.87753,0.17199 -1.87753,0.61965 0,0.47489 0.59666,0.61967 2.55389,0.61967 1.40468,0 2.69189,-0.19638 2.8605,-0.4366 z M 151.11856,101.26391 c -0.0137,-0.28402 -0.003,-3.072489 0.0222,-6.196628 l 0.0454,-5.680256 h -3.30775 c -1.81924,0 -3.30772,-0.08221 -3.30772,-0.182962 0,-0.100759 0.44329,-0.844232 0.98512,-1.652453 l 0.98512,-1.469479 h 6.75972 c 6.29985,0 6.75972,0.05263 6.75972,0.775628 0,0.426584 -0.31451,1.005363 -0.69892,1.286134 -0.38439,0.280753 -0.56546,0.700546 -0.40234,0.932845 0.19433,0.276847 -0.61597,0.355747 -2.35208,0.229075 l -2.64868,-0.193213 v 6.333913 6.333856 h -1.40817 c -0.80111,0 -1.41819,-0.22248 -1.43151,-0.51636 z m 14.01233,-5.267813 -0.14217,-5.784185 3.63772,3.21e-4 c 3.56711,3.23e-4 3.63771,0.01949 3.63771,1.033424 0,0.986875 -0.12535,1.032789 -2.81631,1.032789 -2.50337,0 -2.81631,0.09174 -2.81631,0.826204 0,0.688514 0.31294,0.826228 1.87756,0.826228 1.77322,0 1.87753,0.06875 1.87753,1.239315 0,1.170485 -0.10414,1.239329 -1.87753,1.239329 h -1.87756 v 1.65243 1.652449 h 2.81631 c 2.69116,0 2.81631,0.04586 2.81631,1.032769 0,1.00917 -0.0799,1.03276 -3.49563,1.03276 h -3.49562 z m 14.34298,5.180833 c -0.53835,-0.33186 -1.11071,-1.214875 -1.27194,-1.962285 -0.16131,-0.747377 -0.6346,-2.381317 -1.05187,-3.630978 -0.93521,-2.800525 -0.88686,-4.589147 0.14216,-5.267137 0.43116,-0.283997 2.01085,-0.516376 3.51048,-0.516376 2.59546,0 2.7266,0.04978 2.7266,1.032761 0,0.976437 -0.14083,1.032772 -2.58163,1.032772 -1.50123,0 -2.58159,0.18272 -2.58159,0.436736 0,1.091453 1.09521,4.107472 1.49154,4.107472 0.24284,0 0.32583,0.164669 0.18461,0.365643 -0.14099,0.201023 -0.0276,0.944717 0.25283,1.652429 0.4126,1.041675 0.76915,1.286808 1.8719,1.286808 1.14014,0 1.36222,0.16833 1.36222,1.032755 0,0.89157 -0.21037,1.03277 -1.53839,1.03277 -0.84612,0 -1.97886,-0.27151 -2.51719,-0.60337 z m 8.28004,-5.180136 c 0,-5.272491 0.074,-5.783531 0.83652,-5.783531 0.69682,0 0.81587,0.310428 0.71289,1.858987 l -0.12371,1.858988 h 2.06502 c 1.13577,0 2.39912,0.113014 2.80748,0.250733 0.6173,0.208596 0.74246,-0.104935 0.74246,-1.858986 0,-1.834323 0.12248,-2.109722 0.93878,-2.109722 0.89407,0 0.93876,0.275399 0.93876,5.783531 0,5.508106 -0.0446,5.783506 -0.93876,5.783506 -0.85072,0 -0.93878,-0.2754 -0.93878,-2.935966 0,-2.507486 -0.10838,-2.899363 -0.74246,-2.685185 -0.40836,0.137826 -1.69755,0.250746 -2.86488,0.250746 h -2.12241 l 0.18487,2.685224 c 0.16297,2.365741 0.0853,2.685181 -0.6555,2.685181 -0.76769,0 -0.84047,-0.50083 -0.84047,-5.783506 z m 13.14279,0 v -5.783531 l 1.52547,0.007 c 1.10138,0.0054 1.33754,0.111007 0.84945,0.382798 -0.55347,0.308221 -0.34073,0.804669 1.17348,2.738211 1.01723,1.298946 2.11042,2.753299 2.42931,3.231899 0.4916,0.737776 0.58088,0.3202 0.58675,-2.744521 0.007,-3.578647 0.0194,-3.614705 1.18038,-3.614705 h 1.17344 v 5.783533 5.783512 h -1.17344 c -0.92957,0 -1.17348,-0.2086 -1.17348,-1.00328 0,-0.55179 -0.3319,-1.295388 -0.7376,-1.652427 -0.40568,-0.357037 -0.58007,-0.64916 -0.38756,-0.64916 0.19264,0 -0.0828,-0.418273 -0.61189,-0.929488 -0.52909,-0.511226 -1.21015,-1.352994 -1.51354,-1.870587 -0.93541,-1.595906 -1.44324,-0.602114 -1.44324,2.824458 0,3.005064 -0.079,3.280484 -0.93879,3.280484 -0.89406,0 -0.93874,-0.27542 -0.93874,-5.783512 z m 16.15704,4.647476 c -1.08376,-1.342114 -1.75724,-3.083759 -2.55861,-6.616548 -0.53224,-2.346276 -0.5083,-2.665454 0.2553,-3.408144 0.69247,-0.673432 1.43596,-0.817083 4.17288,-0.806289 1.87354,0.0072 3.65659,0.23322 4.07625,0.516386 0.8503,0.573624 1.47035,2.775336 0.78158,2.775336 -0.25004,0 -0.33294,0.278843 -0.18435,0.619669 0.14849,0.340813 0.0751,0.619658 -0.16331,0.619658 -0.43332,0 -0.98101,1.925668 -1.11103,3.906092 -0.0379,0.577862 -0.22204,1.050784 -0.40896,1.050923 -0.18712,1.66e-4 -0.66766,0.557994 -1.06818,1.239627 -0.94155,1.60246 -2.54593,1.64617 -3.79177,0.1032 z m 2.86902,-1.75573 c 0.0577,-0.340815 0.55237,-1.892856 1.09952,-3.448963 0.54711,-1.556108 0.87717,-2.996826 0.73335,-3.201586 -0.31389,-0.447003 -5.3694,-0.505831 -5.36885,-0.06247 2.7e-4,0.456726 1.39839,6.415332 1.65466,7.053386 0.28864,0.718735 1.74696,0.454913 1.88132,-0.340345 z m 8.19823,-2.891746 v -5.783531 h 1.17346 1.17346 v 4.750733 4.750779 h 2.58148 c 2.44082,0 2.58162,0.05639 2.58162,1.032755 0,1.01557 -0.0628,1.03277 -3.75507,1.03277 h -3.75509 z m 12.78561,4.647476 c -2.1346,-2.723289 -3.45038,-9.627132 -1.98967,-10.439802 0.97583,-0.542926 6.27961,-0.50358 7.67742,0.05682 1.12998,0.453133 2.06249,2.843608 1.10928,2.843608 -0.24116,0 -0.31677,0.278832 -0.16831,0.619647 0.14849,0.340826 0.093,0.61967 -0.12331,0.61967 -0.3562,0 -0.99379,1.765014 -1.64444,4.552424 -0.31578,1.352573 -1.95209,2.883533 -3.08201,2.883533 -0.48869,0 -1.28922,-0.51121 -1.77897,-1.13603 z m 3.7773,-4.497766 c 0.6871,-1.962532 1.13671,-3.728561 0.99912,-3.924509 -0.13782,-0.195902 -1.41243,-0.356308 -2.8329,-0.356308 h -2.58264 l 0.30143,1.962279 c 0.26029,1.69448 0.69595,3.342322 1.41984,5.370401 0.50703,1.420623 1.53794,0.253321 2.69515,-3.051863 z m 10.89608,4.882706 c -0.51635,-0.39796 -1.00609,-0.9878 -1.08838,-1.310736 -0.0822,-0.322933 -0.32765,-1.33891 -0.54537,-2.257692 -0.2176,-0.918819 -0.66878,-2.737671 -1.00244,-4.041914 -0.56618,-2.212951 -0.5454,-2.412168 0.31067,-2.981932 0.55514,-0.369453 1.98303,-0.615702 3.61632,-0.623647 2.56996,-0.01219 2.69897,0.0361 2.69897,1.019626 0,0.963928 -0.15631,1.032772 -2.34691,1.032772 -2.17375,0 -2.34694,0.07417 -2.34694,1.005873 0,0.553239 0.23674,1.529201 0.52594,2.168816 0.28932,0.639626 0.58524,1.562736 0.65764,2.051306 0.29357,1.980912 0.75849,2.623079 1.89907,2.623079 0.90503,0 1.14178,-0.214199 1.14178,-1.032778 0,-0.737454 0.25396,-1.032772 0.88749,-1.032772 0.65203,0 0.93423,0.356119 1.06402,1.342605 0.32749,2.489534 0.0746,2.789834 -2.33792,2.774744 -1.40285,-0.01 -2.53402,-0.27492 -3.13394,-0.73735 z m 9.15302,-5.032416 v -5.783531 h 1.17344 1.17348 v 5.783531 5.783506 h -1.17363 -1.17343 z m 7.04075,0 v -5.783531 h 3.5204 c 3.42302,0 3.52036,0.02807 3.52036,1.012144 0,0.942202 -0.18627,1.020735 -2.69443,1.136058 -2.12538,0.09783 -2.72738,0.276552 -2.85069,0.846831 -0.12823,0.592714 0.18821,0.722942 1.75561,0.722942 1.81151,0 1.91199,0.06515 1.91199,1.239328 0,1.170473 -0.10428,1.239329 -1.87759,1.239329 h -1.87764 v 1.652417 1.652463 h 2.81633 c 2.69114,0 2.81634,0.04586 2.81634,1.032755 0,1.00982 -0.0781,1.03277 -3.52043,1.03277 h -3.52039 z m 11.26523,4.750736 c 0,-0.995698 0.10934,-1.032755 3.05101,-1.032755 2.23428,0 3.05096,-0.147842 3.05096,-0.552537 0,-0.30387 -1.21451,-1.584556 -2.69893,-2.845941 -4.27435,-3.632077 -4.47918,-3.975644 -3.0958,-5.193157 0.52483,-0.461873 1.81862,-0.735351 3.98977,-0.84333 3.19773,-0.159066 3.21311,-0.154679 3.21311,0.919586 0,1.043869 -0.0925,1.079409 -2.81632,1.079409 -1.65424,0 -2.81626,0.179075 -2.81626,0.433814 0,0.2386 1.40331,1.61542 3.11848,3.059577 2.91122,2.451253 3.09792,2.716173 2.8092,3.986563 -0.40843,1.797451 -0.8923,2.007731 -4.63689,2.015211 -3.06855,0.007 -3.16833,-0.0262 -3.16833,-1.02644 z M 146.91744,66.459453 V 53.859652 h 2.34694 2.34692 v 4.33763 4.337649 h 4.92854 4.92853 v -4.337649 -4.33763 h 2.34691 2.34693 v 12.599801 12.59982 h -2.34693 -2.34691 v -5.783529 -5.783511 h -4.92853 -4.92854 v 5.783511 5.783529 h -2.34692 -2.34694 z m 26.40702,9.398228 c 0.11522,-1.760886 0.45343,-3.728414 0.75146,-4.372304 0.29807,-0.643907 0.43349,-1.32515 0.30093,-1.513875 -0.13247,-0.188825 -0.0408,-0.405522 0.20377,-0.48173 0.24447,-0.07614 0.54722,-0.642505 0.67258,-1.258451 0.12535,-0.615936 0.50736,-1.567557 0.84902,-2.114683 0.34162,-0.547162 1.07516,-1.718742 1.63008,-2.603519 0.5549,-0.884767 1.50946,-2.070993 2.1212,-2.636048 2.50698,-2.315642 2.51181,-2.305831 -1.04643,-2.128873 -3.76937,0.187368 -3.83877,0.08828 -2.00912,-2.870374 l 1.24808,-2.018172 h 6.73146 6.73148 v 12.599801 12.59982 h -2.08879 -2.08883 l -0.14083,-2.276851 c -0.0772,-1.252276 -0.29919,-2.274725 -0.49282,-2.272088 -0.19375,0.0028 -2.28211,0.0054 -4.6411,0.0054 h -4.28908 l 0.30341,2.272113 0.30343,2.27209 h -2.62974 -2.62977 z m 13.96006,-11.46376 c 0,-3.067334 -0.11208,-5.576967 -0.24893,-5.576967 -0.44339,0 -3.23907,2.971579 -4.43205,4.710927 -0.63839,0.930729 -1.73837,2.761156 -2.44434,4.06763 l -1.28365,2.375374 h 4.20457 4.20451 z m 21.59218,4.440906 2.9e-4,-10.224436 -4.92906,0.140765 c -5.59379,0.1598 -5.55707,0.1876 -3.88348,-2.929373 l 1.0536,-1.962256 h 10.91972 c 7.40875,0 10.9197,0.141506 10.9197,0.439793 0,0.241762 -0.45715,1.375112 -1.01592,2.518274 l -1.01592,2.078429 -3.91268,-0.142964 -3.91267,-0.142954 5e-5,10.224436 7e-5,10.224436 h -2.11224 -2.11222 z m 21.59119,-2.375374 V 53.859652 h 2.58161 2.5816 V 63.980803 74.10197 h 5.16323 5.16325 v 2.47865 2.478653 h -7.74487 -7.74482 z m 22.53047,0 V 53.859652 h 7.5101 7.5102 v 2.478652 2.47865 h -5.16334 -5.16324 v 1.652425 1.652434 h 3.52039 3.52038 v 2.478651 2.478652 h -3.52038 -3.52039 v 3.511431 3.511423 h 5.16324 5.16321 v 2.47865 2.478653 h -7.51015 -7.51014 z m 32.29641,6.299913 c -0.0501,-3.464952 -0.0248,-8.019476 0.0546,-10.121167 l 0.14582,-3.821245 h -4.90504 c -2.69768,0 -5.01114,-0.09344 -5.14089,-0.207617 -0.12973,-0.114179 0.31025,-1.219639 0.97786,-2.4565 l 1.21388,-2.248861 11.17946,-0.02199 11.17954,-0.02198 -0.32955,0.929495 c -0.18128,0.51122 -0.61798,1.296169 -0.9704,1.744352 -0.35246,0.448158 -0.64082,1.158944 -0.64082,1.579506 0,0.694656 -0.36534,0.75243 -3.99089,0.631012 l -3.99085,-0.133698 0.003,10.224446 v 10.224436 h -2.34694 -2.34689 z"
       id="path1-6" />
  </g>
  <path
     style="fill:#3e3e3e;stroke:#c29474;stroke-width:0;stroke-linecap:round;stroke-miterlimit:0;paint-order:stroke fill markers"
     d="m 30.32075,9.3921738 9.399053,-0.02194 -0.0063,7.3041552 3.000034,-0.01254 4.18856,0.007 1.380354,-0.01563 0.0081,-7.1144274 0.138116,-0.01737 8.642276,0.08768 0.127769,7.1425994 -0.0076,0.366764 0.0034,0.31478 -0.01321,9.096014 0.0027,0.508463 -0.0035,0.406233 -0.02283,0.17552 -0.449888,-0.0077 -7.783554,-0.07663 -0.182444,-0.03757 -0.165857,-0.03757 -0.107807,-0.112695 -0.08293,-0.206608 -0.01658,-1.85947 -0.02488,-4.302027 -0.06634,-0.06491 -0.389765,-0.0094 h -6.96601 -0.3483 l -0.290984,0.03674 -0.234183,-0.05402 -0.163874,0.07197 -0.09474,0.241015 -0.04418,0.338167 -0.01658,0.353792 -0.0085,0.279329 -0.01387,0.796597 0.01929,3.177404 -0.0067,0.180843 0.01512,0.8694 -9.410063,0.01097 z"
     id="path1"
     sodipodi:nodetypes="ccccccccccccccccccccccccccccccccccccccccc" />
</svg>
