<?xml version="1.0" encoding="UTF-8" standalone="no"?>
<!-- Created with Inkscape (http://www.inkscape.org/) -->

<svg
   width="120"
   height="120"
   viewBox="0 0 120 120"
   version="1.1"
   id="svg1"
   inkscape:version="1.3 (0e150ed6c4, 2023-07-21)"
   sodipodi:docname="s-logo.svg"
   xmlns:inkscape="http://www.inkscape.org/namespaces/inkscape"
   xmlns:sodipodi="http://sodipodi.sourceforge.net/DTD/sodipodi-0.dtd"
   xmlns="http://www.w3.org/2000/svg"
   xmlns:svg="http://www.w3.org/2000/svg">
  <sodipodi:namedview
     id="namedview1"
     pagecolor="#ffffff"
     bordercolor="#999999"
     borderopacity="1"
     inkscape:showpageshadow="2"
     inkscape:pageopacity="0"
     inkscape:pagecheckerboard="0"
     inkscape:deskcolor="#d1d1d1"
     inkscape:document-units="px"
     inkscape:zoom="5.6568543"
     inkscape:cx="78.488852"
     inkscape:cy="78.223687"
     inkscape:window-width="1920"
     inkscape:window-height="1164"
     inkscape:window-x="-11"
     inkscape:window-y="-11"
     inkscape:window-maximized="1"
     inkscape:current-layer="layer1" />
  <defs
     id="defs1" />
  <g
     inkscape:label="Layer 1"
     inkscape:groupmode="layer"
     id="layer1">
    <path
       id="rect2"
       style="stroke:#0f0605;stroke-width:0;stroke-linecap:round;stroke-miterlimit:0;paint-order:stroke fill markers;fill:#3a0900;fill-opacity:1"
       d="m 21.628909,120.1582 81.785161,-50.980467 -0.006,-0.01172 h 0.006 l 2.57226,-13.417967 -64.96875,-3.25 L 103.41407,13.60351 96.832033,0.17382978 15.04688,51.154296 l 0.0234,0.04687 -0.0234,-0.002 -1.80274,13.384765 64.181643,3.261719 -62.378903,38.88281 z" />
    <path
       style="fill:#1f1412;fill-opacity:1;stroke:#0f0605;stroke-width:0;stroke-linecap:round;stroke-miterlimit:0;paint-order:stroke fill markers"
       d="m 95.90625,0.17382936 h -5.0625 c -1.6875,0 -80.352266,49.22453364 -80.352266,49.22453364 L 9.2586794,61.447647 12.28598,63.993163 c 0.600994,-4.605569 1.48849,-9.162387 2.222865,-13.268975 z"
       id="path4"
       sodipodi:nodetypes="csccccc" />
    <path
       style="fill:#1f1412;fill-opacity:1;stroke:#0f0605;stroke-width:0;stroke-linecap:round;stroke-miterlimit:0;paint-order:stroke fill markers"
       d="M 20.84375,120 14.21875,106.40625 74.246212,68.412581 68.942911,68.235804 9.2586789,104.12147 14.849242,116.67262 Z"
       id="path5" />
  </g>
</svg>
