<?xml version="1.0" encoding="UTF-8" standalone="no"?>
<svg
   version="1.0"
   width="1380.000000pt"
   height="312.000000pt"
   viewBox="0 0 1380.000000 312.000000"
   preserveAspectRatio="xMidYMid meet"
   id="svg9"
   sodipodi:docname="ERP-Roots.svg"
   inkscape:version="1.3 (0e150ed6c4, 2023-07-21)"
   xmlns:inkscape="http://www.inkscape.org/namespaces/inkscape"
   xmlns:sodipodi="http://sodipodi.sourceforge.net/DTD/sodipodi-0.dtd"
   xmlns="http://www.w3.org/2000/svg"
   xmlns:svg="http://www.w3.org/2000/svg">
  <defs
     id="defs9" />
  <sodipodi:namedview
     id="namedview9"
     pagecolor="#ffffff"
     bordercolor="#999999"
     borderopacity="1"
     inkscape:showpageshadow="2"
     inkscape:pageopacity="0"
     inkscape:pagecheckerboard="0"
     inkscape:deskcolor="#d1d1d1"
     inkscape:document-units="pt"
     inkscape:zoom="0.5923913"
     inkscape:cx="920"
     inkscape:cy="208.47706"
     inkscape:window-width="1920"
     inkscape:window-height="1164"
     inkscape:window-x="-11"
     inkscape:window-y="-11"
     inkscape:window-maximized="1"
     inkscape:current-layer="svg9" />
  <g
     id="g9">
    <path
       d="M 130.4,45.5 C 109.7,50 93,67.4 89.1,88.4 88.4,92.4 88,122.9 88,181.2 v 86.9 l 91.3,-0.4 c 100.9,-0.3 93.7,0.2 106.9,-6.9 13.2,-7 24.5,-23 26.8,-37.8 0.6,-4 1,-39.8 1,-92.8 V 44 l -88.7,0.1 c -69.8,0 -90.1,0.3 -94.9,1.4 z M 259,154.7 v 56.8 l -16,-16 -16,-16 V 154.8 130 h -24.9 -25 L 161.6,114.7 C 153,106.3 146,99.1 146,98.7 146,98.3 171.4,98 202.5,98 H 259 Z m -84.5,2.3 v 25 h 25 25 l 16,16 16,16 H 199.7 143 v -56.7 -56.8 l 15.8,15.8 15.7,15.7 z"
       id="path1"
       style="fill:#9c00f7;stroke:none;stroke-width:0.1;fill-opacity:1" />
    <path
       d="m 861.5,97.4 c -27.3,5.4 -45.7,23 -50.2,47.8 -3.8,21.1 2.1,41.3 16.1,55.2 12.6,12.5 26.5,17.9 46.6,17.9 19,0.1 33.4,-5.2 44.9,-16.2 19.1,-18.4 24,-46.8 12.5,-72 -4.4,-9.7 -16.6,-22 -26.4,-26.8 -12.8,-6.2 -30,-8.5 -43.5,-5.9 z m 24.9,8.4 c 8.2,4.5 13.8,12.8 17.8,26.9 1.9,6.7 2.2,10.2 2.3,25.3 0,15.3 -0.3,18.5 -2.3,25.3 -2.9,10 -5.3,14.8 -10.5,20.4 -6.2,6.7 -10.7,8.7 -19.7,8.8 -12.1,0 -20,-5.3 -25.9,-17.7 -5,-10.6 -6.3,-16.9 -6.8,-33.9 -0.6,-17.9 0.9,-27.9 5.6,-38.4 8.2,-17.9 24.4,-24.8 39.5,-16.7 z"
       id="path2"
       style="fill:#333333;stroke:none;stroke-width:0.1;fill-opacity:1" />
    <path
       d="m 1005.5,97 c -8.1,1.1 -21.2,6 -28,10.5 -16.9,11.3 -26.4,31.5 -25.1,53.5 1,16.9 5.9,28.2 17.1,39.5 12.5,12.6 26.6,17.9 47,17.8 20.1,-0.2 33.4,-5.4 46,-18.1 7,-7 12.5,-16.5 14.9,-25.8 2.1,-8 2.1,-25 0.1,-32.9 -3.6,-14.2 -13.4,-27.5 -25.8,-35.3 -8.2,-5.1 -13,-6.9 -23.3,-8.7 -9.3,-1.6 -13.5,-1.7 -22.9,-0.5 z m 22.9,8.9 c 8.4,4.5 15.5,16 18.7,30.6 2,8.9 1.7,36.1 -0.4,44.8 -2.3,9.1 -5.9,16.5 -10.8,22.1 -5.2,5.8 -10.6,8.7 -17.9,9.3 -17,1.6 -29.3,-11.7 -34,-36.7 -1.6,-8.5 -1.3,-31.3 0.5,-40 5.7,-27.2 24.9,-40.3 43.9,-30.1 z"
       id="path3"
       style="fill:#333333;stroke:none;stroke-width:0.1;fill-opacity:1" />
    <path
       d="m 1239,97.1 c -11.8,2 -22.7,9.6 -27.8,19.4 -2.3,4.3 -2.7,6.2 -2.7,14 0,7.8 0.4,9.7 2.7,14.1 5.1,9.7 14.4,15.6 37.8,23.9 21.1,7.5 30,13.9 31.5,22.3 3.2,18.9 -23.7,28.7 -46.8,17.1 -11,-5.6 -18.8,-15.3 -21.7,-27.2 -0.7,-2.7 -1.8,-4.7 -2.6,-4.7 -1.2,0 -1.4,3.9 -1.4,21.5 0,17.8 0.2,21.5 1.4,21.5 0.8,0 2.3,-1.5 3.4,-3.4 3,-5 6.2,-5.3 17.4,-1.8 16.2,5.2 28.2,6 41,2.7 11.7,-3 20.9,-9.9 25.5,-19.3 2.4,-4.8 2.8,-7 2.8,-13.7 0,-7.1 -0.4,-8.9 -3.3,-14.7 -3.7,-7.5 -9.8,-13.5 -17.7,-17.6 -2.7,-1.4 -12.2,-5.1 -21.1,-8.2 -26,-9.2 -31.4,-13.1 -31.4,-22.9 0,-5.6 3.9,-11 10.3,-14.3 5.8,-3 17.4,-3.6 25.3,-1.3 11.9,3.4 22.6,12.9 26.5,23.6 3.3,9 4.9,7.9 4.9,-3.4 0,-16.4 -1.1,-28.7 -2.7,-28.7 -0.8,0 -1.3,1.1 -1.3,2.8 0,1.6 -0.9,3.7 -2,4.7 -2.4,2.2 -5.5,1.8 -18.5,-2.8 -11.1,-3.9 -20.8,-5.1 -29.5,-3.6 z"
       id="path4"
       style="fill:#333333;stroke:none;stroke-width:0.1;fill-opacity:1" />
    <path
       d="m 328,100.5 c 0,1.1 1.2,1.5 4.5,1.5 5.8,0 9.9,2.1 11.4,5.7 0.8,2.1 1.1,16.1 0.9,51.5 l -0.3,48.7 -2.2,2.3 c -1.7,1.6 -3.8,2.3 -8.3,2.6 -4.2,0.3 -6,0.8 -6,1.8 0,1.2 8.4,1.4 51.5,1.4 28.3,0 51.5,-0.3 51.5,-0.8 0,-0.4 1.1,-7.9 2.5,-16.7 2.9,-19 2.9,-18.5 1,-18.5 -0.8,0 -1.5,0.6 -1.5,1.2 0,2.6 -5.9,13.4 -9.4,17.5 -2.2,2.5 -6.4,5.6 -10.4,7.5 -6.6,3.3 -6.7,3.3 -21.4,3.3 -12.8,0 -15,-0.2 -16.5,-1.8 -1.6,-1.6 -1.8,-4.3 -2.1,-25.2 l -0.3,-23.5 4.8,0.6 c 2.6,0.3 5.7,0.7 6.9,0.9 5.7,1.2 11.2,9.3 13.4,19.7 0.7,3.8 1.6,5.8 2.6,5.8 1.2,0 1.4,-4.7 1.4,-30 0,-25.8 -0.2,-30 -1.5,-30 -0.8,0 -1.7,1 -1.9,2.2 -2.7,13.3 -5.1,18.6 -9.7,22 -2.4,1.8 -13.5,4.1 -15.1,3.1 -0.5,-0.2 -0.8,-11.2 -0.8,-24.4 V 105 h 13 c 14.5,0 21.4,1.1 26.2,4.4 4.4,2.9 9.4,10.6 11.4,17.2 0.9,3.3 2.1,5.4 3,5.4 1.2,0 1.4,-2.9 1.4,-16.5 V 99 h -50 c -43.8,0 -50,0.2 -50,1.5 z"
       id="path5"
       style="fill:#333333;stroke:none;stroke-width:0.1;fill-opacity:1" />
    <path
       d="m 443,100.5 c 0,1.1 1.1,1.5 4,1.5 6.2,0 10.5,2.2 11.9,6 1.5,4.5 1.6,94.4 0,98.9 -1.4,3.9 -3.9,5.4 -10.3,6.1 -2.7,0.3 -5.1,1.1 -5.4,1.7 -0.3,1 6.2,1.3 30.3,1.3 24.1,0 30.6,-0.3 30.3,-1.3 -0.3,-0.6 -2.7,-1.4 -5.4,-1.7 -6.4,-0.7 -8.9,-2.2 -10.3,-6.1 C 487.4,205 487,195.6 487,183.4 V 163 h 2.9 c 2.7,0 4,1.7 19.6,26.5 l 16.7,26.5 h 17.4 c 18.8,0 21.1,-0.8 13.4,-4.3 -2.7,-1.3 -5.5,-3.9 -8.4,-8 -4.2,-5.9 -24.4,-37.6 -26.5,-41.6 -0.9,-1.6 -0.4,-2.1 4.8,-4 6.9,-2.5 14.3,-8.7 17.4,-14.5 1.7,-3.2 2.2,-5.8 2.2,-12.1 0,-9.6 -2.2,-15.2 -8.4,-21.4 C 528.3,100.3 521.3,99 476.9,99 447.4,99 443,99.2 443,100.5 Z m 61.1,6.1 c 3.5,1.1 6.5,2.8 8.6,5.1 7.7,8.1 8.4,27.3 1.4,37.1 -3.1,4.4 -9.3,7 -18.8,7.8 l -8.3,0.7 V 131.1 105 h 5.8 c 3.2,0 8.3,0.7 11.3,1.6 z"
       id="path6"
       style="fill:#333333;stroke:none;stroke-width:0.1;fill-opacity:1" />
    <path
       d="m 567,100.4 c 0,1.2 1.1,1.6 4.8,1.6 5.7,0 8.9,2 10.8,6.6 1.8,4.3 2.1,93.2 0.3,98.3 -1.4,3.9 -5.4,6.1 -11.4,6.1 -3.3,0 -4.5,0.4 -4.5,1.5 0,1.3 4,1.5 30,1.5 26,0 30,-0.2 30,-1.5 0,-1.1 -1.2,-1.5 -4.4,-1.5 -5.7,0 -9.4,-3 -10.6,-8.5 -0.5,-2.2 -1,-12.4 -1,-22.8 V 163 h 7.3 c 16.7,-0.1 29.7,-2 38,-5.5 5.4,-2.3 12.4,-9.1 15.5,-15 6.8,-13.3 0.5,-30.2 -14,-37.6 -9.7,-5 -12,-5.2 -52.5,-5.6 C 570.9,98.9 567,99 567,100.4 Z m 65.3,6 c 8.4,3 11.9,9.2 12.5,22.2 0.9,19.5 -6,27.2 -24.4,27.7 l -8.9,0.2 -0.3,-25.8 L 611,105 h 8.7 c 4.9,0.1 10.5,0.7 12.6,1.4 z"
       id="path7"
       style="fill:#333333;stroke:none;stroke-width:0.1;fill-opacity:1" />
    <path
       d="m 682,100.4 c 0,1.2 1,1.6 4,1.6 6.2,0 10.5,2.2 11.9,6 1.2,3.6 1.6,92 0.5,97.9 -0.9,4.1 -4.4,6.4 -10.8,7.1 -2.7,0.3 -5.1,1.1 -5.4,1.7 -0.3,1 6.2,1.3 30.3,1.3 24.1,0 30.6,-0.3 30.3,-1.3 -0.3,-0.6 -2.7,-1.4 -5.4,-1.7 -6.4,-0.7 -8.9,-2.2 -10.3,-6.1 C 726.4,205 726,195.6 726,183.4 V 163 h 2.9 c 2.7,0 4,1.7 19.6,26.5 l 16.7,26.5 h 17.4 c 18.8,0 21.1,-0.8 13.4,-4.3 -2.7,-1.3 -5.5,-3.9 -8.4,-8 -4.2,-5.9 -24.4,-37.6 -26.5,-41.6 -0.9,-1.6 -0.4,-2.1 5.1,-4.1 8.8,-3.2 17,-11.4 18.8,-18.9 1.5,-6.5 0.8,-14.4 -1.8,-20.4 -2.3,-5.1 -8.5,-11.8 -13.4,-14.3 C 761.4,100 758,99.7 719.3,99.3 685.8,98.9 682,99 682,100.4 Z m 61.1,6.2 c 6.5,2 11,6.4 13.3,13 2,5.8 2.1,15.5 0.2,21.7 -3.1,10.2 -8.8,14.1 -22.3,15.3 l -8.3,0.7 V 131.1 105 h 5.8 c 3.2,0 8.3,0.7 11.3,1.6 z"
       id="path8"
       style="fill:#333333;stroke:none;stroke-width:0.1;fill-opacity:1" />
    <path
       d="m 1091,114.5 c 0,12.1 0.3,15.5 1.3,15.5 0.7,0 2.1,-2.7 3.2,-6.1 2.2,-7.6 6.8,-13.8 12,-16.3 3,-1.5 6.2,-2 13.5,-2 l 9.5,-0.1 0.3,43.5 c 0.2,23.9 0,46.8 -0.3,50.8 -0.9,9.9 -3.1,12.5 -11.1,13.2 -3.3,0.3 -5.9,1 -6.2,1.7 -0.3,1 6.3,1.3 30.7,1.3 27,0 31.1,-0.2 31.1,-1.5 0,-1.1 -1.2,-1.5 -4.5,-1.5 -6,0 -10,-2.2 -11.4,-6.1 -0.7,-2.2 -1.1,-19 -1.1,-52.7 v -49.5 l 9.3,0.6 c 10.5,0.6 14.9,2.1 19.3,6.9 3.8,4 5.4,6.9 6.9,12.7 0.6,2.5 1.6,4.6 2.3,4.9 0.9,0.3 1.2,-3.5 1.2,-15.2 V 99 h -53 -53 z"
       id="path9"
       style="fill:#333333;stroke:none;stroke-width:0.1;fill-opacity:1" />
  </g>
</svg>
