<?xml version="1.0" encoding="UTF-8" standalone="no"?>
<!-- Uploaded to: SVG Repo, www.svgrepo.com, Generator: SVG Repo Mixer Tools -->

<svg
   width="800px"
   height="800px"
   viewBox="0 0 16 16"
   fill="none"
   version="1.1"
   id="svg1"
   sodipodi:docname="github.svg"
   inkscape:version="1.3 (0e150ed6c4, 2023-07-21)"
   xmlns:inkscape="http://www.inkscape.org/namespaces/inkscape"
   xmlns:sodipodi="http://sodipodi.sourceforge.net/DTD/sodipodi-0.dtd"
   xmlns="http://www.w3.org/2000/svg"
   xmlns:svg="http://www.w3.org/2000/svg">
  <defs
     id="defs1" />
  <sodipodi:namedview
     id="namedview1"
     pagecolor="#ffffff"
     bordercolor="#999999"
     borderopacity="1"
     inkscape:showpageshadow="2"
     inkscape:pageopacity="0"
     inkscape:pagecheckerboard="0"
     inkscape:deskcolor="#d1d1d1"
     inkscape:zoom="0.38935067"
     inkscape:cx="193.9126"
     inkscape:cy="142.54502"
     inkscape:window-width="1920"
     inkscape:window-height="1164"
     inkscape:window-x="-11"
     inkscape:window-y="-11"
     inkscape:window-maximized="1"
     inkscape:current-layer="svg1" />
  <ellipse
     style="fill:#ca9474;stroke:#000000;stroke-width:0;stroke-linecap:round;stroke-miterlimit:0;paint-order:stroke fill markers;fill-opacity:1"
     id="path2"
     cx="8.0000019"
     cy="8.000001"
     rx="8.000001"
     ry="8" />
  <path
     fill="#161514"
     fill-rule="evenodd"
     d="M 7.9999995,0 C 3.5805706,0 -1.03e-6,3.5817369 -1.03e-6,8.0022639 c 0,3.5359631 2.29257163,6.5340951 5.47085753,7.5925961 0.4,0.07323 0.5462857,-0.173938 0.5462857,-0.385639 0,-0.189957 -0.00686,-0.693461 -0.011428,-1.361745 C 3.7805708,14.331525 3.3119994,12.775243 3.3119994,12.775243 2.947428,11.850628 2.4228566,11.604598 2.4228566,11.604598 c -0.7257144,-0.496638 0.054858,-0.486337 0.054858,-0.486337 0.8034286,0.05722 1.2262858,0.823914 1.2262858,0.823914 0.7131429,1.224427 1.8720001,0.869686 2.3280001,0.665996 0.072,-0.517234 0.2788572,-0.869687 0.5074286,-1.069944 -1.7760007,-0.201401 -3.6434293,-0.887995 -3.6434293,-3.954786 0,-0.8731198 0.312,-1.588323 0.8228572,-2.1467535 -0.082286,-0.2025455 -0.3565714,-1.0161606 0.08,-2.1170011 0,0 0.6697144,-0.2162773 2.1988572,0.8193368 A 7.6697147,7.6795644 0 0 1 7.9999995,3.8689623 c 0.68,0.00343 1.3645715,0.091546 2.0034295,0.2700609 1.526856,-1.0356141 2.197714,-0.8204811 2.197714,-0.8204811 0.436571,1.1019848 0.162286,1.9155999 0.08,2.117001 0.512,0.5607193 0.822856,1.2747781 0.822856,2.1478979 0,3.073656 -1.872,3.751097 -3.6537137,3.947921 0.2868575,0.247173 0.5428575,0.7358 0.5428575,1.483045 0,1.068798 -0.01024,1.93162 -0.01024,2.194814 0,0.213989 0.1451422,0.462309 0.5508562,0.384493 A 7.995429,8.0056969 0 0 0 16,8.0022639 7.9965719,8.0068413 0 0 0 7.9999995,0 Z"
     clip-rule="evenodd"
     id="path1"
     style="stroke-width:0.999997;fill:#3a0900;fill-opacity:1" />
</svg>
