<?xml version="1.0" encoding="UTF-8" standalone="no"?>
<!-- Uploaded to: SVG Repo, www.svgrepo.com, Transformed by: SVG Repo Mixer Tools -->

<svg
   width="800px"
   height="800px"
   viewBox="0 0 25 25"
   fill="none"
   version="1.1"
   id="svg1"
   sodipodi:docname="logo-ts-svgrepo-com.svg"
   inkscape:version="1.3 (0e150ed6c4, 2023-07-21)"
   xmlns:inkscape="http://www.inkscape.org/namespaces/inkscape"
   xmlns:sodipodi="http://sodipodi.sourceforge.net/DTD/sodipodi-0.dtd"
   xmlns="http://www.w3.org/2000/svg"
   xmlns:svg="http://www.w3.org/2000/svg">
  <defs
     id="defs1" />
  <sodipodi:namedview
     id="namedview1"
     pagecolor="#ffffff"
     bordercolor="#999999"
     borderopacity="1"
     inkscape:showpageshadow="2"
     inkscape:pageopacity="0"
     inkscape:pagecheckerboard="0"
     inkscape:deskcolor="#d1d1d1"
     inkscape:zoom="0.77870134"
     inkscape:cx="563.75914"
     inkscape:cy="590.08502"
     inkscape:window-width="1920"
     inkscape:window-height="1164"
     inkscape:window-x="-11"
     inkscape:window-y="-11"
     inkscape:window-maximized="1"
     inkscape:current-layer="svg1" />
  <g
     id="SVGRepo_bgCarrier"
     stroke-width="0" />
  <g
     id="SVGRepo_tracerCarrier"
     stroke-linecap="round"
     stroke-linejoin="round" />
  <path
     fill-rule="evenodd"
     clip-rule="evenodd"
     d="M 23.4375,1.5624995 H 1.5624995 V 23.4375 H 23.4375 Z M 10.424646,20.520834 H 8.5967561 V 13.293917 H 5.975956 v -1.507042 h 7.069461 v 1.507042 H 10.424646 Z M 20.94273,17.918146 c 0,1.731042 -1.343709,2.826688 -3.522605,2.826688 -2.088187,0 -3.407687,-0.998667 -3.5105,-2.548292 l -0.0061,-0.09683 H 15.6649 l 0.006,0.06052 c 0.06665,0.653771 0.774813,1.095646 1.797688,1.095646 0.974458,0 1.646312,-0.466083 1.646312,-1.137937 v -0.0061 c 0,-0.574875 -0.42977,-0.895709 -1.513166,-1.119709 L 16.681671,16.804591 C 14.8659,16.435341 14.085109,15.587903 14.085109,14.262424 v -0.0061 c 0,-1.622104 1.392125,-2.693396 3.328937,-2.693396 2.039771,0 3.23823,1.077417 3.353146,2.536042 l 0.0061,0.07875 h -1.718937 l -0.01211,-0.07263 C 18.939271,13.481604 18.334063,13.045854 17.414,13.045854 c -0.901833,0.006 -1.501062,0.417521 -1.501062,1.071292 v 0.006 c 0,0.569042 0.423791,0.907958 1.452646,1.119854 l 0.926041,0.187542 c 1.846105,0.381354 2.651105,1.119708 2.651105,2.481646 z"
     fill="#006aff"
     id="path1-8"
     style="stroke-width:1" />
</svg>
