<?xml version="1.0" encoding="UTF-8" standalone="no"?>
<!-- Created with Inkscape (http://www.inkscape.org/) -->

<svg
   width="3840"
   height="2160"
   viewBox="0 0 3840 2160"
   version="1.1"
   id="svg1"
   inkscape:version="1.3 (0e150ed6c4, 2023-07-21)"
   sodipodi:docname="austranut-remains.svg"
   xmlns:inkscape="http://www.inkscape.org/namespaces/inkscape"
   xmlns:sodipodi="http://sodipodi.sourceforge.net/DTD/sodipodi-0.dtd"
   xmlns="http://www.w3.org/2000/svg"
   xmlns:svg="http://www.w3.org/2000/svg">
  <sodipodi:namedview
     id="namedview1"
     pagecolor="#ffffff"
     bordercolor="#999999"
     borderopacity="1"
     inkscape:showpageshadow="2"
     inkscape:pageopacity="0"
     inkscape:pagecheckerboard="0"
     inkscape:deskcolor="#d1d1d1"
     inkscape:document-units="px"
     inkscape:zoom="0.40143041"
     inkscape:cx="1925.6139"
     inkscape:cy="1015.1199"
     inkscape:window-width="1920"
     inkscape:window-height="1164"
     inkscape:window-x="-11"
     inkscape:window-y="-11"
     inkscape:window-maximized="1"
     inkscape:current-layer="layer1" />
  <defs
     id="defs1" />
  <g
     inkscape:label="Layer 1"
     inkscape:groupmode="layer"
     id="layer1">
    <path
       id="path4"
       d="m 1383.0873,1096.4744 c -0.9964,4.9663 -5.0464,8.3601 -9.2635,8.2006 0,0 -0.3214,-0.065 -0.4822,-0.065 -0.3535,-0.065 -0.7393,-0.1966 -1.1892,-0.2292 -7.3736,-1.887 -14.6186,-3.3111 -21.886,-4.3415 v 0 c -13.5257,-1.8871 -26.7074,-2.2081 -39.5677,-1.2482 -8.5532,0.6258 -16.9714,1.887 -25.1935,3.6983 -1.3821,0.2297 -2.7643,0.5473 -4.14,0.9469 -4.7699,1.1042 -9.4564,2.4375 -14.0078,4.0205 -49.3776,16.1686 -88.1096,52.0362 -105.306,92.5624 -13.7379,32.4849 -11.3881,63.0813 6.2293,85.7838 2.5392,3.3955 5.5157,6.6198 8.7589,9.6231 1.6393,1.5102 2.6999,3.5532 3.182,5.7483 0.6109,3.0139 0,6.3131 -1.7999,8.912 -1.8642,2.5227 -4.4774,3.8627 -7.1067,3.8627 -1.9929,0 -4.0693,-0.7109 -5.7311,-2.2802 -0.7393,-0.6357 -1.4465,-1.3334 -2.1214,-2.0508 -0.9643,-0.9568 -1.9286,-1.897 -2.8286,-2.929 -27.8227,-29.4827 -33.5571,-72.2154 -15.0621,-115.818 19.6874,-46.3606 64.5041,-87.3532 121.0527,-104.7105 5.9337,-1.8118 12.0119,-3.3958 18.151,-4.6451 5.1718,-1.032 10.4207,-1.8969 15.8208,-2.6011 7.097,-0.8748 14.2777,-1.3466 21.6737,-1.4187 10.3597,-0.1965 20.9217,0.4849 31.6864,2.0509 7.3864,1.104 14.8467,2.5227 22.2974,4.4994 4.9147,1.2614 8.0163,6.8522 6.9203,12.4544"
       style="fill:#3a0900;fill-opacity:1;fill-rule:nonzero;stroke:none;stroke-width:0.133334" />
    <path
       id="path5"
       d="m 1394.7735,425.73761 c -0.3535,-1.26131 -0.7714,-2.60128 -1.0929,-3.8629 -13.6863,-46.05394 -37.3658,-81.92196 -66.6382,-102.43003 -5.744,-4.09323 -11.7321,-7.56332 -17.8842,-10.32186 -3.3878,-1.58239 -6.9011,-3.00098 -10.4207,-4.17808 -3.2562,-1.01889 -6.419,-1.97226 -9.7361,-2.68645 -3.4585,-0.71095 -6.6343,0.71093 -8.6946,3.39571 -0.7072,0.94685 -1.2535,1.97556 -1.6071,3.07305 v 0.0657 c -0.3214,0.54711 -0.3535,1.10406 -0.3858,1.73965 -0.9643,5.67561 2.2823,11.11828 7.1841,12.22136 1.8642,0.36351 3.7253,0.9468 5.5895,1.49723 5.8725,1.72652 11.6711,4.17808 17.1867,7.17115 6.2261,3.46847 12.2271,7.6495 17.8843,12.54051 20.7159,17.89662 37.6327,45.33083 48.5387,79.47034 0.9643,2.84372 1.8,5.76084 2.6357,8.67857 1.2535,4.4146 4.8407,7.25735 8.7042,7.25735 0.8999,0 1.8642,-0.19652 2.8285,-0.4849 4.7636,-1.8117 7.4604,-7.64949 5.9369,-13.16587 z m 27.617,140.41937 c 0,-0.54711 0,-1.01888 0,-1.56926 -0.3535,-5.83352 -4.9049,-9.94151 -9.6684,-9.85568 -5.1108,0.36351 -8.9101,5.28148 -8.6336,11.04456 0,2.0509 0.3214,4.09291 0.3214,6.14152 6.4092,156.35526 -53.0997,260.99201 -78.5087,286.52601 -3.3781,3.3959 -6.2162,5.4454 -8.1481,5.9185 -5.0335,0 -9.1124,4.7175 -9.1124,10.481 0,5.7608 4.0789,10.4073 9.1124,10.4073 1.3179,0 3.8765,0 8.0197,-2.208 4.2717,-2.2802 10.2727,-7.0117 18.2891,-16.7081 32.731,-39.6681 85.9625,-147.36978 78.4379,-300.18177"
       style="fill:#3a0900;fill-opacity:1;fill-rule:nonzero;stroke:none;stroke-width:0.133334" />
    <path
       id="path6"
       d="m 1824.0199,1179.909 c 0,33.8207 -25.1292,67.8132 -78.843,106.6724 -0.9,0.6257 -1.7999,1.3464 -2.6999,1.9722 -1.5107,1.104 -3.24,1.5824 -4.9051,1.5824 -3.0535,0 -6.0009,-1.7397 -7.727,-4.9058 -1.3822,-2.5095 -1.7357,-5.4149 -1.0928,-8.115 0,-0.3636 0.3214,-0.8617 0.3857,-1.3465 0.7071,-1.9657 1.9286,-3.6933 3.5967,-4.8815 8.5564,-6.1415 16.3607,-12.148 23.4031,-17.9586 32.9302,-27.2867 49.5801,-51.8281 49.5801,-73.0228 0,-12.1606 -5.3871,-23.8914 -14.3613,-35.3282 -4.2203,-5.4453 -9.3278,-10.8736 -14.985,-16.1692 -15.9523,-15.2128 -36.7969,-30.192 -58.2779,-45.4904 -45.0834,-32.3255 -94.3742,-67.6542 -115.6496,-115.82925 -3.3813,-7.6371 -6.0781,-15.5309 -7.9456,-23.8917 -1.2857,-6.1415 -2.2822,-12.6131 -2.6036,-19.2329 -0.5464,-8.2868 -0.3215,-16.9531 0.9965,-26.0245 0.7392,-5.6759 4.9049,-9.6961 10.485,-8.7527 4.9691,0.8749 8.3538,6.2396 7.5888,11.9154 -1.0928,8.2006 -1.3178,16.0831 -0.6107,23.573 0.7072,8.666 2.5071,16.8669 5.3228,24.7615 2.9894,8.8262 7.1839,17.2599 12.2914,25.2278 22.0917,34.77675 61.3797,62.90965 99.906,90.50275 18.9868,13.6564 37.5588,26.9809 53.2283,40.7719 5.7344,5.0508 11.0475,10.1003 15.8144,15.3716 16.4988,17.7497 27.1348,36.7628 27.1348,58.5949"
       style="fill:#3a0900;fill-opacity:1;fill-rule:nonzero;stroke:none;stroke-width:0.133334" />
    <path
       id="path28"
       d="m 1703.9752,715.59307 c -2.475,0 -4.9596,-1.16302 -6.7725,-3.42001 l -62.9676,-79.2748 c -3.391,-4.27506 -3.1178,-10.87288 0.6108,-14.75875 3.7671,-3.83832 9.511,-3.50481 12.9246,0.71094 l 62.9676,79.2748 c 3.4039,4.27506 3.1179,10.88567 -0.6108,14.77123 -1.7678,1.80186 -3.96,2.69953 -6.1586,2.69953"
       style="fill:#3a0900;fill-opacity:1;fill-rule:nonzero;stroke:none;stroke-width:0.133334" />
    <path
       id="path29"
       d="m 1480.1106,287.13881 3.9729,1.41857 c 1.9285,0.68472 3.2142,2.70937 3.2142,4.99054 v 6.41114 l 4.0146,-4.97811 c 1.1893,-1.51032 3.0215,-2.13607 4.7989,-1.41857 l 5.0754,1.92308 -2.5071,-3.65061 c -1.35,-1.9657 -1.318,-4.71737 0,-6.59494 l 3.1499,-4.29307 -6.2678,1.60535 c -1.8642,0.36351 -3.5453,-0.29478 -4.5771,-1.88709 l -3.7993,-5.49377 v 5.9908 c 0,2.47345 -1.5429,4.60855 -3.6288,5.09963 z m 2.6035,31.43046 c -0.5785,0 -1.1249,-0.13087 -1.6714,-0.29478 -1.7677,-0.7928 -2.925,-2.72249 -2.925,-4.88149 v -15.97257 l -17.4116,-6.28825 c -1.9929,-0.72076 -3.3076,-2.86662 -3.1822,-5.23301 0,-2.3752 1.6071,-4.36578 3.6385,-4.85721 l 16.9714,-4.08079 V 260.1427 c 0,-2.23108 1.2536,-4.21448 3.0858,-4.94207 1.8642,-0.76994 3.8763,-0.0656 5.101,1.70356 l 10.186,14.77154 16.7239,-4.25079 c 2.0571,-0.36351 3.9277,0.54713 4.9274,2.40142 0.9965,1.9329 0.8358,4.37794 -0.45,6.07988 l -9.5432,12.85894 9.6268,13.98688 c 1.2858,1.81174 1.3178,4.34154 0.3215,6.23942 -1.1893,1.874 -3.2658,2.75855 -5.1847,1.92313 l -16.7592,-6.34986 -9.9385,12.36879 c -0.9,1.07786 -2.0893,1.66757 -3.3493,1.66757"
       style="fill:#3a0900;fill-opacity:1;fill-rule:nonzero;stroke:none;stroke-width:0.133334" />
    <path
       id="path30"
       d="m 1639.1568,255.22033 3.8957,1.49722 c 1.8964,0.69782 3.15,2.70937 3.15,4.95419 v 6.38686 l 3.9503,-4.97842 c 1.2536,-1.51031 3.0215,-2.06073 4.7764,-1.4481 l 5.3357,1.92313 -2.6035,-3.45635 c -1.5107,-2.02464 -1.4465,-5.00269 0,-6.95103 l 3.2978,-4.06863 -6.5893,1.59548 c -1.6713,0.42609 -3.4778,-0.29477 -4.5514,-1.86087 l -3.7286,-5.48165 v 5.93017 c 0,2.43746 -1.5107,4.57221 -3.5614,5.08752 z m 2.4428,31.47963 c -0.5464,0 -1.125,-0.13087 -1.6714,-0.29478 -1.7679,-0.78302 -2.9249,-2.72249 -2.9249,-4.87522 v -16.07123 l -16.38,-6.21453 c -1.9286,-0.74694 -3.2207,-2.87976 -3.1499,-5.23302 0,-2.34242 1.5749,-4.31141 3.5646,-4.81463 l 15.9492,-4.069 v -16.85547 c 0,-2.21795 1.2534,-4.20201 3.0856,-4.91754 1.8643,-0.73385 3.8958,-0.0656 5.1075,1.69053 l 10.1764,14.78334 17.8102,-4.3052 c 2.0573,-0.36351 3.928,0.60607 4.9243,2.54228 0.9965,1.95912 0.7394,4.42672 -0.6106,6.11659 l -10.2632,12.68789 10.3917,13.80247 c 1.3179,1.77566 1.4464,4.34156 0.3536,6.28856 -1.1572,1.96568 -3.2626,2.75854 -5.2072,2.10986 l -17.8296,-6.43537 -9.9384,12.43008 c -0.9,1.09097 -2.1214,1.68065 -3.391,1.68065"
       style="fill:#3a0900;fill-opacity:1;fill-rule:nonzero;stroke:none;stroke-width:0.133334" />
    <path
       id="path31"
       d="m 1672.4892,483.50924 c -6.6214,27.5931 -28.4463,47.23136 -55.0219,47.23136 -13.9563,0 -26.5917,-5.4453 -36.392,-14.58774 19.4077,-3.31055 40.5995,-9.46319 60.4894,-17.27192 10.2824,-4.4146 20.9089,-9.61061 30.9245,-15.3717"
       style="fill:#3a0900;fill-opacity:1;fill-rule:nonzero;stroke:none;stroke-width:0.133334" />
    <path
       id="path32"
       d="m 1674.6364,464.50882 c -10.3692,6.61948 -22.9917,13.32481 -37.7741,19.63761 -25.396,10.08827 -48.4552,15.60535 -67.0337,17.81118 -6.0782,-10.24784 -9.5238,-22.78829 -9.5238,-36.43188 0,-36.57829 25.0551,-65.2751 57.1625,-65.2751 31.7602,0 56.6869,28.1448 57.1691,64.25819"
       style="fill:#3a0900;fill-opacity:1;fill-rule:nonzero;stroke:none;stroke-width:0.133334" />
    <path
       id="path33"
       d="m 1903.1597,867.26688 c -2.3463,0 -4.6735,-1.01883 -6.4639,-3.0501 -3.571,-4.08109 -3.571,-10.70188 0,-14.77115 l 23.8724,-27.25079 c 3.51,-3.99593 9.1993,-4.09291 12.7639,-0.19652 l 22.7892,24.74938 c 3.6386,3.98418 3.7993,10.59149 0.3214,14.7716 -3.4456,4.12949 -9.286,4.35326 -12.9245,0.36344 l -16.3157,-17.73772 -17.5725,20.05464 c -1.7677,2.03778 -4.0982,3.05009 -6.4605,3.05009"
       style="fill:#3a0900;fill-opacity:1;fill-rule:nonzero;stroke:none;stroke-width:0.133334" />
    <path
       id="path34"
       d="m 1562.2196,642.04027 c 0,11.51043 -7.9328,20.5078 -18.0128,20.5078 -10.4978,0 -19.0541,-9.23019 -19.0541,-20.5078 0,-11.35119 8.5563,-20.58206 19.0541,-20.58206 10.08,0 18.0128,9.0713 18.0128,20.58206"
       style="fill:#3a0900;fill-opacity:1;fill-rule:nonzero;stroke:none;stroke-width:0.133334" />
    <path
       id="path35"
       d="m 1707.2902,432.41656 c -1.3821,5.76047 -8.0068,13.96234 -19.4722,22.86138 -1.2856,-12.38095 -4.9691,-23.73151 -10.488,-33.58781 17.402,-0.36351 26.5145,3.00093 29.2724,6.77866 0.7713,0.94685 1.0928,1.97226 0.707,3.94777"
       style="fill:#3a0900;fill-opacity:1;fill-rule:nonzero;stroke:none;stroke-width:0.133334" />
    <path
       id="path36"
       d="m 1554.3583,502.98795 c -15.0492,0.13087 -25.1935,-2.36537 -28.4463,-6.77937 -0.675,-0.95989 -0.8999,-1.73965 -0.675,-3.073 0.675,-4.97846 6.8367,-14.1953 21.4038,-25.38728 0.3215,12.77341 3.0215,24.67665 7.7271,35.24326"
       style="fill:#3a0900;fill-opacity:1;fill-rule:nonzero;stroke:none;stroke-width:0.133334" />
  </g>
</svg>
