<?xml version="1.0" encoding="UTF-8" standalone="no"?>
<!-- Created with Inkscape (http://www.inkscape.org/) -->

<svg
   width="3840"
   height="2160"
   viewBox="0 0 3840 2160"
   version="1.1"
   id="svg1"
   inkscape:version="1.3 (0e150ed6c4, 2023-07-21)"
   sodipodi:docname="floating-austronut.svg"
   xmlns:inkscape="http://www.inkscape.org/namespaces/inkscape"
   xmlns:sodipodi="http://sodipodi.sourceforge.net/DTD/sodipodi-0.dtd"
   xmlns="http://www.w3.org/2000/svg"
   xmlns:svg="http://www.w3.org/2000/svg">
  <sodipodi:namedview
     id="namedview1"
     pagecolor="#ffffff"
     bordercolor="#999999"
     borderopacity="1"
     inkscape:showpageshadow="2"
     inkscape:pageopacity="0"
     inkscape:pagecheckerboard="0"
     inkscape:deskcolor="#d1d1d1"
     inkscape:document-units="px"
     inkscape:zoom="0.25"
     inkscape:cx="3226"
     inkscape:cy="1166"
     inkscape:window-width="1920"
     inkscape:window-height="1164"
     inkscape:window-x="-11"
     inkscape:window-y="-11"
     inkscape:window-maximized="1"
     inkscape:current-layer="layer1" />
  <defs
     id="defs1" />
  <g
     inkscape:label="Layer 1"
     inkscape:groupmode="layer"
     id="layer1">
    <g
       id="g29"
       style="fill:#000000;fill-opacity:1">
      <path
         id="path4"
         d="m 2851.7245,1114.924 c 1.39,4.8708 -0.6546,9.7431 -4.476,11.5338 0,0 -0.3141,0.094 -0.4584,0.1631 -0.3443,0.103 -0.7472,0.164 -1.1631,0.3375 -7.4186,1.7015 -14.5108,3.7556 -21.4424,6.17 v 0 c -12.8869,4.5205 -24.7503,10.2754 -35.7411,17.0216 -7.3156,4.4754 -14.2201,9.4539 -20.6982,14.8315 -1.1232,0.8375 -2.2062,1.7531 -3.2459,2.7387 -3.7336,3.1672 -7.2882,6.4997 -10.6083,9.9923 -36.4796,36.9975 -54.4704,86.6259 -51.1848,130.5269 2.6747,35.1687 18.7834,61.2872 44.8453,73.3932 3.8129,1.8545 7.936,3.3564 12.1949,4.5397 2.149,0.5912 4.0278,1.9211 5.4623,3.6512 1.924,2.399 2.8928,5.6113 2.4838,8.7461 -0.5009,3.0965 -2.2096,5.485 -4.5466,6.6898 -1.7714,0.9132 -3.9428,1.2325 -6.1388,0.5994 -0.9485,-0.2263 -1.8968,-0.5224 -2.8254,-0.8508 -1.2955,-0.4085 -2.5835,-0.8023 -3.8563,-1.3072 -38.2395,-13.4561 -62.9179,-48.8107 -66.4588,-96.0411 -3.745,-50.2282 17.3057,-107.2002 59.6145,-148.5401 4.4438,-4.3294 9.1205,-8.5226 14.0047,-12.4461 4.124,-3.2872 8.3931,-6.4611 12.8701,-9.5615 5.9072,-4.0296 12.0735,-7.7393 18.6143,-11.1925 9.118,-4.9217 18.8181,-9.1559 29.1037,-12.6966 7.0712,-2.4034 14.3522,-4.561 21.8805,-6.2181 4.9463,-1.1309 10.2651,2.4171 11.8579,7.8988"
         style="fill:#000000;fill-opacity:1;fill-rule:nonzero;stroke:none;stroke-width:0.133334" />
      <path
         id="path5"
         d="m 2971.4747,587.79506 c -0.8921,-0.95912 -1.8776,-1.95864 -2.7415,-2.93267 -33.268,-34.66288 -70.751,-55.69299 -106.1666,-60.50784 -6.9812,-1.00612 -13.8937,-1.34654 -20.6259,-0.97936 -3.7363,0.1459 -7.5091,0.4949 -11.1768,1.06142 -3.3611,0.58649 -6.6092,1.18837 -9.8848,2.07356 -3.3998,0.95288 -5.571,3.67192 -6.172,7.00232 -0.1947,1.16567 -0.2089,2.33035 -0.02,3.46787 l 0.03,0.0585 c -0.035,0.63355 0.1917,1.14329 0.4547,1.72289 1.7434,5.48664 7.1234,8.83649 11.9857,7.57081 1.8236,-0.53112 3.745,-0.8655 5.6542,-1.23048 6.0108,-1.15635 12.2882,-1.6344 18.5622,-1.50146 7.1233,0.22992 14.373,1.19634 21.6425,2.95133 26.6138,6.41453 54.2212,23.04723 79.5585,48.39417 2.1601,2.08573 4.2397,4.29561 6.3194,6.50607 3.1371,3.34943 7.6282,4.23242 11.0622,2.46205 0.7998,-0.41234 1.5669,-1.0289 2.2918,-1.72708 3.4039,-3.79313 3.1259,-10.21771 -0.756,-14.42274 z m 88.8911,112.15467 c -0.2507,-0.48627 -0.4668,-0.90561 -0.7191,-1.39479 -2.9872,-5.02307 -8.9151,-6.58881 -13.1097,-4.32974 -4.3761,2.66501 -5.4995,8.77723 -2.613,13.77295 0.9399,1.82289 2.1612,3.49065 3.1,5.31152 77.3431,136.03706 72.3971,256.31041 61.5131,290.64913 -1.4465,4.5663 -3.03,7.6884 -4.5303,8.9942 -4.4739,2.3065 -5.9377,8.3686 -3.2967,13.4914 2.6398,5.1204 8.3944,7.3814 12.8683,5.0748 1.1714,-0.6038 3.4456,-1.7763 6.1164,-5.6373 2.752,-3.9842 5.9178,-10.9395 8.5999,-23.2313 10.9154,-50.25674 8.8774,-170.37786 -67.8335,-302.75443"
         style="fill:#000000;fill-opacity:1;fill-rule:nonzero;stroke:none;stroke-width:0.133334" />
      <path
         id="path6"
         d="m 3243.961,1239.6788 c 15.4976,30.061 8.7382,71.7896 -21.198,130.9422 -0.5133,0.9685 -0.9829,2.0215 -1.4961,2.9901 -0.8369,1.6736 -2.1547,2.8912 -3.6347,3.6542 -2.7141,1.3992 -6.131,1.2035 -9.116,-0.8197 -2.3785,-1.5972 -4.024,-4.0176 -4.6899,-6.7122 -0.1666,-0.3231 -0.1091,-0.9131 -0.2742,-1.3735 -0.2722,-2.0712 0.022,-4.1665 0.9601,-5.987 4.791,-9.3795 8.9754,-18.2945 12.5723,-26.6862 16.7659,-39.3429 20.3195,-68.7855 10.6074,-87.6241 -5.5724,-10.8088 -15.7359,-18.767 -28.9532,-24.8202 -6.2463,-2.9061 -13.2735,-5.3905 -20.7284,-7.5052 -21.1499,-6.2119 -46.5411,-9.9743 -72.6444,-13.7288 -54.8841,-8.0735 -114.884,-16.8885 -155.8696,-49.959 -6.5049,-5.2388 -12.519,-11.0194 -18.0102,-17.595 -3.9569,-4.8696 -7.8081,-10.1651 -11.1271,-15.9018 -4.283,-7.1152 -8.0543,-14.9212 -11.0395,-23.5881 -1.9439,-5.3836 -0.083,-10.8658 5.3086,-12.5842 4.8177,-1.4994 10.2844,1.718 12.2052,7.1134 2.7865,7.7897 6.1985,14.8991 10.2591,21.2323 4.5996,7.3786 9.9572,13.8431 16.0775,19.5699 6.7015,6.4752 14.2943,12.0493 22.4851,16.7911 35.5715,20.7876 83.3833,27.7902 130.2708,34.6621 23.1338,3.438 45.747,6.771 65.994,11.8487 7.4113,1.8617 14.4476,3.9152 21.1001,6.4163 22.7981,8.2163 40.9641,20.242 50.9682,39.6472"
         style="fill:#000000;fill-opacity:1;fill-rule:nonzero;stroke:none;stroke-width:0.133334" />
      <path
         id="path7"
         d="m 2806.7801,678.72794 c 0.01,1.06244 -0.05,2.14866 -0.1027,3.23761 0.02,0.88144 -0.018,1.78944 -0.083,2.7151 -1.9038,50.83812 -21.8315,96.14132 -56.2551,128.17642 -10.5003,9.4792 -22.0869,17.59481 -34.4834,23.98564 -38.5431,19.87047 -82.0806,22.80073 -123.3251,10.89515 32.4256,5.36335 65.333,0.90754 94.9083,-14.33967 11.3649,-5.85904 21.9099,-13.25256 31.5574,-21.95197 67.287,-62.36869 69.4124,-178.6087 4.6218,-259.09657 -55.5338,-67.80035 -141.9724,-90.6512 -210.2195,-55.46722 -11.7734,6.06966 -22.7283,13.7556 -32.6709,22.9558 -11.8334,11.08097 -21.8991,23.97779 -29.8038,38.16194 9.6059,-23.39093 23.9808,-44.02789 42.5736,-60.88103 10.5845,-9.8979 22.3444,-18.26649 35.0437,-24.81345 72.4811,-37.36677 167.4316,-12.16038 225.7755,60.03824 34.3976,41.70808 53.0666,93.73134 52.4677,146.37842"
         style="fill:#000000;fill-opacity:1;fill-rule:nonzero;stroke:none;stroke-width:0.133334" />
      <path
         id="path8"
         d="m 2494.3207,639.94735 c 0.1957,0.37858 2.3008,40.60167 50.579,105.48109 3.4061,4.6431 3.0093,10.95784 -0.9078,14.21824 -0.4556,0.30876 -0.8814,0.6755 -1.3671,0.9259 -3.8739,1.99713 -8.8402,0.65518 -11.8835,-3.44516 -53.3546,-71.682 -55.16,-116.78708 -55.2291,-118.69582 -0.1719,-5.59427 3.9825,-9.77651 9.121,-9.32098 5.2523,0.39571 9.5476,5.28335 9.708,10.86922 z m 215.7552,-75.1245 c -49.4176,-60.2924 -126.4107,-80.6609 -187.1125,-49.36679 -10.4851,5.40545 -20.2205,12.28586 -28.9843,20.44783 -29.0227,27.02995 -45.3584,65.87505 -46.0234,109.33079 -0.6976,43.55402 14.4201,86.41631 42.5936,120.58955 49.3866,60.23945 126.3614,80.42464 187.3089,49.00386 10.0564,-5.18447 19.5012,-11.73811 28.0107,-19.50245 59.8942,-55.44026 61.7847,-158.87154 4.2078,-230.50129"
         style="fill:#000000;fill-opacity:1;fill-rule:nonzero;stroke:none;stroke-width:0.133334" />
      <path
         id="path10"
         d="m 2255.9172,908.43568 12.6605,59.64491 -65.1973,-3.19752 c -18.3241,-1.20036 -24.425,-13.76405 -26.3979,-21.07675 -3.7725,-14.12196 1.0957,-29.6647 10.8466,-34.69162 2.5141,-1.29613 5.3039,-1.93824 8.4787,-1.80571 l 54.6057,1.04538 c 1.1588,0.28353 2.3583,0.36552 3.6015,0.18159 l 0.7621,-0.13515 0.6208,0.0116"
         style="fill:#000000;fill-opacity:1;fill-rule:nonzero;stroke:none;stroke-width:0.133334" />
      <path
         id="path11"
         d="m 3284.8538,460.92187 c -0.2285,7.8269 -3.3457,14.7571 -8.6819,19.46682 l -57.6215,50.80718 -38.1659,-49.1575 57.2935,-49.49321 c 11.2768,-10.07746 29.221,-7.34149 39.4924,5.62348 5.1633,6.57835 7.9422,14.63434 7.6834,22.75323"
         style="fill:#000000;fill-opacity:1;fill-rule:nonzero;stroke:none;stroke-width:0.133334" />
      <path
         id="path12"
         d="m 2841.1285,485.73072 17.1601,36.58273 c -3.7279,0.1416 -7.5091,0.49497 -11.1795,1.06326 -0.3634,-0.70469 -0.7582,-1.47055 -1.0839,-2.10241 -6.7237,-13.04213 -21.6137,-18.8536 -33.0815,-12.94151 l -2.7892,1.6957 c -10.8718,8.00811 -12.8555,24.01835 -4.6467,36.36374 7.881,11.99025 20.9216,16.45214 31.7238,10.88324 l 1.7957,-1.14686 c 4.9138,-2.53325 8.4721,-6.75617 10.1938,-12.17818 6.0168,-1.14464 12.285,-1.63312 18.5762,-1.49541 l 40.9974,87.52725 -83.2925,38.51264 c -2.2458,-53.75995 -22.3756,-106.09159 -57.5067,-148.74523 -21.8324,-26.98686 -47.7096,-47.97265 -75.6512,-62.39213 l 107.0993,-8.47436 c 16.2367,-0.74416 29.962,11.26773 41.7795,36.74364"
         style="fill:#000000;fill-opacity:1;fill-rule:nonzero;stroke:none;stroke-width:0.133334" />
      <path
         id="path13"
         d="m 2796.6883,375.1398 13.9827,54.97735 c -4.6715,-1.2333 -9.4181,-1.70734 -14.4139,-1.43696 l -35.4718,2.75757 -12.9241,-47.53716 c -1.8862,-7.0957 -0.9706,-14.67009 2.4476,-20.69395 3.2161,-5.8198 8.5242,-9.53862 15.322,-10.64138 6.4213,-1.27214 13.5268,0.47343 19.5562,4.90895 5.7551,4.21905 9.8342,10.36335 11.4965,17.67023"
         style="fill:#000000;fill-opacity:1;fill-rule:nonzero;stroke:none;stroke-width:0.133334" />
      <path
         id="path14"
         d="m 2630.3172,956.16197 -343.0418,10.96794 -13.0605,-61.47993 298.6959,-43.80911 c 1.8903,0.79099 3.7117,1.448 5.5912,2.08425 l 0.03,0.0584 51.7821,92.17281"
         style="fill:#000000;fill-opacity:1;fill-rule:nonzero;stroke:none;stroke-width:0.133334" />
      <path
         id="path15"
         d="m 3082.9481,1489.6884 c -19.9079,-33.6353 -38.3753,-64.0273 -55.9958,-90.0834 30.5346,-2.24 51.5018,3.6241 60.878,17.1465 9.9588,14.4774 8.1966,40.1415 -4.8822,72.9369"
         style="fill:#000000;fill-opacity:1;fill-rule:nonzero;stroke:none;stroke-width:0.133334" />
      <path
         id="path16"
         d="m 3034.5659,1716.0276 c 1.2,23.4063 -41.2119,100.2715 -83.3496,131.8424 -13.8016,10.3148 -25.9608,14.2758 -34.2054,10.8187 -5.1235,-1.977 -8.9184,-5.7043 -11.9279,-11.6823 -12.1114,-24.194 -4.9068,-73.4203 1.2339,-101.1485 0.7621,-0.135 1.5093,-0.3689 2.2522,-0.7519 0.8,-0.4124 1.4812,-0.9849 2.2348,-1.6977 1.0349,-1.149 1.6611,-2.4598 2.0506,-3.9837 v 0 c 57.2003,-21.9452 114.2611,-33.2821 121.6275,-23.3983"
         style="fill:#000000;fill-opacity:1;fill-rule:nonzero;stroke:none;stroke-width:0.133334" />
      <path
         id="path17"
         d="m 3331.1265,1569.6909 c 7.6483,54.6148 -18.2335,114.8627 -45.5468,130.2818 -10.7027,6.0633 -20.4364,5.1259 -30.0343,-2.9693 -37.1456,-30.1684 -51.0104,-80.8624 -54.5494,-96.6074 6.4809,-1.9071 16.3251,-9.9163 33.7185,-32.54 16.5269,-20.2293 26.2089,-50.8734 34.0358,-75.471 3.9267,-12.4099 7.5868,-24.1441 10.3076,-29.7115 2.8162,1.1137 5.613,2.1547 8.3101,3.1636 0.03,0.058 0.3758,0.028 0.4208,0.1147 13.1544,13.0088 36.0001,49.4739 43.3638,103.6982"
         style="fill:#000000;fill-opacity:1;fill-rule:nonzero;stroke:none;stroke-width:0.133334" />
      <path
         id="path18"
         d="m 2839.2757,839.40277 55.9924,187.85303 -116.0465,52.4479 -8.3651,-25.408 45.1207,-21.1272 4.7704,-2.2016 0.2859,-0.1471 c 10.6192,-5.4746 15.0086,-20.1505 9.6266,-34.50421 l -25.8394,-52.50609 c -3.4994,-6.7878 -8.9983,-11.77209 -15.0039,-14.34451 -5.9556,-2.51752 -12.558,-2.67021 -18.0833,0.17828 l -39.5103,17.98062 -32.8831,-48.2537 139.9026,-59.96132"
         style="fill:#000000;fill-opacity:1;fill-rule:nonzero;stroke:none;stroke-width:0.133334" />
      <path
         id="path19"
         d="m 2763.929,1017.0579 c -9.265,4.7765 -21.2167,0.1259 -26.6767,-10.4649 -5.7801,-11.21161 -2.4994,-24.43241 7.3201,-29.49472 11.5594,-3.20232 22.3039,1.98967 27.2861,11.65383 5.6399,10.93969 2.2013,23.08299 -7.9295,28.30579 z m 17.0992,-68.68421 -80.1631,37.06321 c -1.9128,1.0595 -2.8109,4.64861 -1.4742,7.24137 l 25.503,54.16853 c 1.123,2.1782 4.5296,3.5251 6.7579,2.3763 l 68.6248,-31.7369 11.3556,-5.2388 0.2857,-0.147 c 0.5429,-0.2798 1.009,-0.7785 1.3659,-1.4192 0.1806,-0.3513 0.3492,-0.7256 0.5373,-1.0621 0.235,-0.7368 0.4264,-1.5578 0.5308,-2.4078 0.1225,-1.3053 -0,-2.7409 -0.5414,-4.0662 l -25.2056,-51.13621 c -1.8811,-3.64875 -5.358,-4.78168 -7.4979,-3.67848"
         style="fill:#000000;fill-opacity:1;fill-rule:nonzero;stroke:none;stroke-width:0.133334" />
      <path
         id="path20"
         d="m 2997.7102,917.82894 84.6329,176.81116 c -71.1902,-15.734 -137.386,-53.2681 -160.216,-69.5361 14.8709,-18.3136 57.0487,-79.6254 75.5831,-107.27506"
         style="fill:#000000;fill-opacity:1;fill-rule:nonzero;stroke:none;stroke-width:0.133334" />
      <path
         id="path21"
         d="m 2992.2125,783.61767 130.5599,255.49413 c 5.2071,10.1003 12.3223,30.6357 2.243,35.8321 l -25.9994,12.2573 -132.5417,-277.00765 -0.03,-0.0584 c -0.09,-0.17474 -0.1347,-0.2621 -0.2218,-0.43111 l 25.8927,-26.02336"
         style="fill:#000000;fill-opacity:1;fill-rule:nonzero;stroke:none;stroke-width:0.133334" />
      <path
         id="path22"
         d="m 3203.6938,542.15057 -215.4237,216.17821 v 0 l -2.005,2.00308 v 0 l -31.9387,32.07798 c -11.3307,-16.15608 -34.3714,-50.3968 -80.953,-122.99122 l 51.6436,-23.96297 c 0.3442,-0.10366 0.6615,-0.11997 0.9472,-0.26721 l 0.3998,-0.20611 c 0.2857,-0.14723 0.3428,-0.17674 0.5128,-0.33816 v 0 l 240.3,-149.70114 36.6164,47.22505"
         style="fill:#000000;fill-opacity:1;fill-rule:nonzero;stroke:none;stroke-width:0.133334" />
      <path
         id="path23"
         d="m 2949.4642,817.00607 38.0499,79.55816 c -12.2465,18.73941 -61.3723,90.54318 -78.5564,112.35257 l -55.2241,-185.311 c -0.8847,-2.90908 -2.8201,-5.47017 -5.3611,-6.82138 -2.5168,-1.44483 -5.4345,-1.63985 -7.838,-0.56402 l -160.0089,68.56137 c -2.6042,1.1215 -4.3242,3.37563 -4.934,6.26826 -0.6122,2.88101 0.038,6.10663 1.8183,8.64782 l 38.1807,55.97615 -23.9472,11.10354 c -11.2308,5.7899 -15.1236,21.45007 -8.7256,33.86036 l 25.5371,54.1645 c 3.2916,6.3848 8.7013,11.1262 14.6287,13.4763 5.9934,2.4156 12.3938,2.4922 17.8621,-0.3269 l 13.1087,-6.054 10.7983,32.8423 0.1048,0.2037 c 1.9285,7.5286 4.7831,21.9319 4.1622,38.222 -4.4668,3.0989 -8.7375,6.27 -12.8614,9.5571 l -152.78,-271.7992 c 41.2356,8.72444 83.9164,4.11163 122.0224,-15.53348 13.6248,-7.02411 26.4283,-15.94323 37.9977,-26.51213 37.0738,-34.4636 58.8103,-82.83752 61.8636,-137.19117 l 31.151,-14.46356 c 35.5167,55.4878 79.2579,122.71985 93.0219,139.74523"
         style="fill:#000000;fill-opacity:1;fill-rule:nonzero;stroke:none;stroke-width:0.133334" />
      <path
         id="path24"
         d="m 3177.9725,1187.1844 c -20.2525,-5.0881 -42.8688,-8.4063 -65.9995,-11.8311 -46.8819,-6.8893 -94.6993,-13.9024 -130.271,-34.6906 l 151.2662,-28.5683 c 0.7621,-0.1351 1.4778,-0.4305 2.1636,-0.784 2.6569,-1.3697 4.3958,-4.1274 4.6654,-7.3715 17.9907,28.5138 29.7001,55.6458 38.1694,83.2201"
         style="fill:#000000;fill-opacity:1;fill-rule:nonzero;stroke:none;stroke-width:0.133334" />
      <path
         id="path25"
         d="m 3055.1461,1108.0401 -102.8655,19.4083 c -6.1261,-5.71 -11.4837,-12.1742 -16.0693,-19.5748 2.604,-2.9384 4.361,-6.5801 5.0853,-10.7727 1.2436,-6.9311 -0.513,-14.5613 -3.9968,-19.4952 -6.617,-12.8351 -21.4198,-18.9403 -32.3333,-13.314 l -2.3519,1.4708 c -5.7115,4.0097 -9.536,10.599 -10.3656,18.0317 -0.7762,6.7857 0.8587,13.5693 4.5587,18.9437 5.5606,8.4012 14.3039,13.1062 22.6857,12.9642 3.3188,5.7362 7.1647,11.0218 11.1273,15.9023 l -145.594,27.5059 c 0.9637,-4.3036 1.6004,-8.6311 2.1341,-12.8918 10.9768,-6.7242 22.8359,-12.4877 35.7358,-17.0041 v 0 c 7.9547,10.4497 20.5531,14.2431 30.621,9.0528 l 2.6659,-1.6328 c 10.9237,-8.02 12.9296,-24.0433 5.3282,-35.2948 -6.3248,-12.2684 -21.2041,-17.6309 -32.5004,-11.8072 l -2.7662,1.6841 c -5.846,4.3519 -9.1005,10.9954 -9.5349,18.142 -10.2931,3.5261 -19.9722,7.8012 -29.1037,12.6966 -0.4481,-8.3888 -1.577,-15.8745 -2.6989,-21.9581 l 126.1364,-57.1253 0.3999,-0.2062 c 0.5429,-0.2798 1.0845,-0.6322 1.552,-1.0582 26.1174,19.1793 82.7162,49.0831 142.116,66.3578"
         style="fill:#000000;fill-opacity:1;fill-rule:nonzero;stroke:none;stroke-width:0.133334" />
      <path
         id="path26"
         d="m 3207.3579,1391.2231 c 4.8873,31.8077 28.9745,51.082 53.7649,63.4851 -3.3964,7.4202 -6.5842,17.4895 -10.3074,29.27 -7.3412,23.1198 -16.427,51.9251 -30.9469,69.6991 -16.2714,21.1736 -23.4263,25.8412 -25.1464,26.7279 -2.6727,0.2168 -5.0127,1.7033 -6.4014,4.0041 -1.4013,-1.666 -3.361,-2.872 -5.5399,-3.3385 -30.3008,-6.3763 -63.7131,-33.5186 -87.2848,-70.3399 0.1957,-0.3218 0.3505,-0.5122 0.492,-0.8691 20.428,-45.6724 22.6458,-80.7014 6.5607,-104.0737 -15.0883,-21.8598 -44.405,-30.5217 -87.1301,-25.6933 -0.5909,0.046 -1.2238,0.1514 -1.8221,0.3938 -24.7134,-33.9291 -47.8404,-58.2922 -70.9869,-69.5973 -0.9779,-1.1951 -2.0277,-2.2498 -3.4131,-3.0431 -11.7274,-6.6283 -24.0861,-12.959 -35.6764,-18.8584 -8.8472,-4.486 -17.28,-8.8272 -24.6783,-12.9158 -4.8664,-2.6351 -10.3521,-0.7828 -12.2839,4.2098 -1.9735,4.9056 0.3634,11.0801 5.2609,13.7823 7.4921,4.123 16.1292,8.5382 25.206,13.1677 5.5687,2.8118 11.2756,5.7306 16.942,8.7535 -3.0452,204.6216 8.345,223.671 70.5672,327.0524 8.6435,14.5214 18.3631,30.6388 29.2433,49.3164 -36.0208,1.1099 -87.9824,19.651 -110.9032,28.5299 -45.091,-52.5105 -81.6044,-134.0194 -105.1118,-201.6426 0.4584,-0.1632 0.9742,-0.3551 1.4027,-0.576 0.9143,-0.4713 1.7235,-1.1463 2.4559,-1.9702 25.6333,-29.9713 34.6964,-57.1793 26.9872,-80.7049 -7.1471,-21.6916 -28.167,-38.3551 -62.488,-49.4853 -5.2872,-41.0073 -15.8699,-136.4083 22.9894,-207.181 l 156.61,-22.6077 c 40.9886,33.0697 105.7921,45.7657 160.6848,53.8348 26.0972,3.7711 51.4859,7.5215 72.6446,13.7289 7.1428,29.2238 9.5941,47.9166 14.3734,81.2967 2.8349,19.1979 5.7002,38.9323 9.2799,59.8839 -0.064,0.5782 0.1194,1.0035 0.268,1.3618 1.2767,7.9478 2.8142,16.0225 4.3957,24.3373"
         style="fill:#000000;fill-opacity:1;fill-rule:nonzero;stroke:none;stroke-width:0.133334" />
      <path
         id="path27"
         d="m 2810.8976,1440.9976 c 4.9068,14.7788 -2.1254,34.4575 -20.3101,56.8791 -13.4023,-41.5269 -21.23,-75.3761 -22.2391,-89.8475 18.2297,6.5726 37.3368,17.1197 42.5492,32.9684"
         style="fill:#000000;fill-opacity:1;fill-rule:nonzero;stroke:none;stroke-width:0.133334" />
      <path
         id="path4-4"
         d="m 3603.2683,464.44586 c -6.5136,3.65433 -5.1867,1.3049 -9.3084,8.85019 -0.2345,4.32723 0,0.26454 -0.1474,7.96275 1.7647,7.40383 19.0552,83.463 19.9652,90.74645 v 0 c 1.6629,13.55508 1.7657,26.74028 0.5931,39.58294 -0.7673,8.54167 -2.1677,16.93784 -4.1149,25.12883 -0.2525,1.37812 -0.5929,2.75487 -1.0152,4.12376 -1.183,4.75098 -2.5938,9.41477 -4.2518,13.93934 -16.9837,49.10323 -53.4874,87.23625 -94.2928,103.75952 -32.7078,13.19834 -63.2611,10.34245 -85.6688,-7.6483 -3.3531,-2.59506 -6.5277,-5.62451 -9.4769,-8.91698 -1.4829,-1.66407 -3.508,-2.75834 -5.6948,-3.27671 -3.0034,-0.6607 -6.3122,-0.10449 -8.9406,1.65215 -2.5532,1.82219 -3.9363,4.41285 -3.9798,7.04179 -0.033,1.99263 0.6435,4.08051 2.185,5.76806 0.6234,0.74972 1.3093,1.46837 2.0154,2.15505 0.9408,0.98 1.8648,1.95973 2.8818,2.8767 29.0181,28.30687 71.6501,34.74777 115.5529,16.977 46.68,-18.91736 88.4088,-63.04943 106.6997,-119.30299 1.9098,-5.90291 3.5941,-11.95405 4.945,-18.07164 1.1174,-5.154 2.0691,-10.38787 2.8625,-15.77557 0.9922,-7.08155 1.5827,-14.25346 1.7773,-21.64725 0.3679,-10.35503 -0.1386,-20.92686 -1.5262,-31.71601 -0.9816,-7.40367 -2.2766,-14.88642 -4.1298,-22.36881 -1.1798,-4.93491 -13.436,-80.25351 -19.0556,-79.25039"
         style="fill:#000000;fill-opacity:1;fill-rule:nonzero;stroke:none;stroke-width:0.133334"
         sodipodi:nodetypes="cccsscccccccccsccccccccccc" />
      <path
         id="path6-4"
         d="m 3295.2822,682.18344 c 33.2875,-5.9815 71.1885,12.7396 118.9349,58.7341 0.7751,0.7751 1.6435,1.5334 2.4187,2.3085 1.3537,1.2916 2.1304,2.9091 2.4249,4.5479 0.5401,3.0054 -0.6509,6.214 -3.4618,8.4728 -2.2255,1.8043 -5.0226,2.6661 -7.7938,2.5108 -0.3579,0.064 -0.905,-0.1639 -1.3935,-0.1414 -2.0598,-0.3483 -3.9762,-1.245 -5.4407,-2.6767 -7.558,-7.3353 -14.85,-13.9543 -21.8146,-19.858 -32.6805,-27.5852 -59.7798,-39.6323 -80.6404,-35.8838 -11.9689,2.1507 -22.562,9.5276 -32.2313,20.3831 -4.6131,5.1168 -9.0525,11.1038 -13.2641,17.6084 -12.1516,18.3914 -23.2082,41.5566 -34.4663,65.4046 -23.8425,50.0898 -49.8967,104.8518 -93.5495,134.312 -6.9187,4.6787 -14.2111,8.7291 -22.1098,12.0459 -5.8173,2.3516 -12.0107,4.4769 -18.4693,5.964 -8.0595,2.0034 -16.629,3.3148 -25.7905,3.6219 -5.7171,0.2763 -10.4107,-3.1127 -10.4691,-8.7717 -0.018,-5.0455 4.6638,-9.3256 10.3855,-9.5765 8.2645,-0.3748 16.0626,-1.5474 23.3094,-3.568 8.4043,-2.2288 16.1576,-5.4507 23.4297,-9.6182 8.1584,-4.5033 15.7173,-10.1233 22.6563,-16.5595 30.3213,-27.894 51.0623,-71.5382 71.4067,-114.3373 10.0831,-21.1028 19.9129,-41.7386 30.7152,-59.6001 3.957,-6.5373 7.9873,-12.6597 12.3324,-18.2837 14.5519,-19.378 31.3842,-33.2089 52.8722,-37.0702"
         style="fill:#000000;fill-opacity:1;fill-rule:nonzero;stroke:none;stroke-width:0.133334" />
      <path
         id="use1"
         d="m 3840,284.16477 c -19.3353,-10.23425 -34.7706,-28.56505 -108.7208,-9.04737 -30.5391,12.57277 -42.708,30.30842 -64.0747,57.37296 -11.6911,13.9303 -13.4415,32.15541 -28.2462,51.78469 -9.7186,-1.02663 -6.1293,1.04426 -12.9364,-2.51363 -2.0601,-0.13434 -3.0599,-3.75381 -1.1405,-8.17701 6.3692,-39.96295 57.8217,-104.9659 103.5919,-117.05245 48.679,-12.8332 85.127,-10.72123 111.5267,8.04757"
         style="fill:#000000;fill-opacity:1;fill-rule:nonzero;stroke:none;stroke-width:0.133095"
         sodipodi:nodetypes="cccccccc" />
    </g>
    <path
       sodipodi:type="star"
       style="fill:#ffff00;fill-opacity:1;stroke:#c29474;stroke-width:0;stroke-linecap:round;stroke-miterlimit:0;paint-order:stroke fill markers"
       id="path31"
       inkscape:flatsided="false"
       sodipodi:sides="6"
       sodipodi:cx="3366.0879"
       sodipodi:cy="255.33691"
       sodipodi:r1="194.28619"
       sodipodi:r2="90.807381"
       sodipodi:arg1="1.0397223"
       sodipodi:arg2="1.4731223"
       inkscape:rounded="0"
       inkscape:randomized="0"
       d="m 3464.486,422.86283 -89.5427,-77.15135 -104.738,78.60367 22.0436,-116.12193 -120.4418,-51.40398 111.5864,-38.97058 -15.7037,-130.007662 89.5427,77.151352 104.738,-78.603677 -22.0437,116.121937 120.4419,51.40398 -111.5864,38.97058 z"
       inkscape:transform-center-x="3.1828287"
       inkscape:transform-center-y="-0.76693739"
       transform="matrix(0.55800027,0.16778575,-0.20786258,0.69128262,1798.733,-315.36139)" />
  </g>
</svg>
